<svg width="1920" height="874" viewBox="0 0 1920 874" fill="none" xmlns="http://www.w3.org/2000/svg">
<path d="M239.73 281.098C239.73 281.098 177.408 384.313 211.914 455.014C211.914 455.014 102.032 495.504 0.0548096 455.014V114.153L178.17 60.9606L214.145 125.024L239.73 281.098Z" fill="#60195D"/>
<path d="M215.033 294.45C191.279 341.282 162.267 402.411 201.234 449.775C201.796 450.464 202.884 449.558 202.394 448.79C195.939 438.549 190.227 428.525 186.873 416.532C182.92 402.372 184.008 387.05 186.401 372.713C191.061 344.866 203.518 319.56 215.359 294.667C215.486 294.43 215.141 294.214 215.033 294.45Z" fill="#8F278A"/>
<path d="M179.729 320.131C164.951 358.514 148.632 409.403 169.339 448.928C169.847 449.913 171.46 449.243 171.062 448.14C155.286 405.188 165.513 361.862 180.2 320.269C180.309 319.953 179.838 319.816 179.729 320.131Z" fill="#8F278A"/>
<path d="M180.219 246.043C180.219 246.043 117.843 416.867 155.269 456.313C155.269 456.313 81.6508 469.725 0.0548096 444.083V208.172L180.219 246.043Z" fill="#3A103A"/>
<path d="M128.142 322.376L348.379 284.879C348.379 284.879 346.928 271.684 356.792 258.194C366.656 244.684 382.377 233.183 382.758 240.332C383.121 247.48 369.957 266.327 369.957 266.327C369.957 266.327 420.419 256.224 424.789 264.575C428.126 270.896 391.879 278.065 391.879 278.065C391.879 278.065 432.097 271.704 433.928 279.66C435.977 288.601 393.71 293.603 393.71 293.603C393.71 293.603 426.24 292.363 421.126 301.107C416.013 309.851 365.55 312.627 351.661 301.5L110.372 371.61C110.372 371.61 119.584 336.91 128.142 322.376Z" fill="#EB9772"/>
<path d="M238.678 324.227C233.854 318.122 229.376 312.017 224.988 305.892L128.124 322.376C126.963 324.345 125.785 326.708 124.624 329.288C141.379 333.798 181.107 332.105 188.36 335.059C193.238 336.929 197.571 341.164 201.923 345.024L245.731 332.301C243.301 329.761 240.944 327.102 238.678 324.227Z" fill="#D3744A"/>
<path d="M228.831 282.967C228.831 282.967 262.83 277.098 271.153 307.15C281.814 345.711 207.598 367.61 185.803 317.726L228.831 282.967Z" fill="#EB9772"/>
<path d="M258.623 321.864C255.631 310.737 242.775 306.325 233.383 305.183C221.452 303.726 208.451 307.842 198.967 315.719C198.423 316.172 198.877 317.118 199.511 316.743C205.477 313.336 211.787 311.131 218.333 309.969C218.442 310.048 218.568 310.107 218.732 310.107C223.682 310.126 227.508 313.829 229.103 318.772C229.738 320.741 229.865 323.026 228.958 324.916C227.889 327.161 225.35 327.161 223.41 327.733C221.941 328.166 221.941 330.509 223.41 330.943C230.427 333.07 234.199 325.428 232.911 318.988C231.968 314.321 228.94 310.737 225.132 309.102C226.438 309.004 227.744 308.964 229.067 308.945C241.452 308.787 247.907 314.695 256.211 323.38C257.227 324.444 259.022 323.38 258.623 321.864Z" fill="#D3744A"/>
<path d="M271.153 307.153C263.319 278.853 232.712 282.397 229.176 282.909C243.863 285.903 258.823 293.229 261.361 310.914C265.096 336.122 236.248 344.866 217.063 345.043C245.423 352.448 278.514 333.779 271.153 307.153Z" fill="#FFA88A"/>
<path d="M0.036499 506.67H105.549V417.989C105.549 417.989 167.236 394.317 182.086 381.713C182.086 381.713 165.858 320.761 157.045 298.074L102.304 338.387C102.304 338.387 56.4284 310.678 0.036499 352.488V506.67Z" fill="#11A295"/>
<path d="M67.9786 310.678C67.9786 310.678 64.1527 349.967 64.6241 354.516C65.0956 359.046 83.1917 363.575 86.9996 355.028C90.8074 346.461 100.454 313.711 100.454 313.711L67.9786 310.678Z" fill="#EB9772"/>
<path d="M67.9785 310.678C67.9785 310.678 66.3466 328.56 65.4399 339.214C74.9957 339.765 86.9088 337.599 94.5607 333.07C97.7157 323.045 100.472 313.691 100.472 313.691L67.9785 310.678Z" fill="#D3744A"/>
<path d="M0.036499 269.872C0.036499 269.872 21.1064 308.157 79.094 326.295C137.082 344.433 235.813 330.293 268.814 236.609C303.628 137.885 268.361 52.0196 164.915 16.039C60.617 -20.2369 0.036499 55.2494 0.036499 55.2494V269.872Z" fill="#EB9772"/>
<path d="M177.027 300.594C150.608 317.393 120.798 326.354 90.0638 329.249C148.813 342.444 237.807 324.641 268.814 236.649C280.98 202.106 284.553 169.138 279.657 139.342C260.726 202.106 229.575 266.761 177.027 300.594Z" fill="#FFA88A"/>
<path d="M127.344 242.36C119.33 242.478 111.315 242.478 103.373 241.041C102.63 240.903 102.303 242.084 103.065 242.281C110.499 244.31 117.879 244.802 125.458 244.96C122.213 251.596 115.957 253.526 110.626 257.918C109.774 258.627 110.263 260.006 111.351 259.789C118.713 258.351 125.93 251.557 128.505 244.034C128.795 243.207 128.088 242.34 127.344 242.36Z" fill="#D3744A"/>
<path opacity="0.4" d="M25.7481 212.544C20.399 208.487 13.2367 209.905 9.44704 215.32C9.41077 215.379 9.37451 215.419 9.33824 215.478C9.30198 215.537 9.26571 215.576 9.22945 215.635C9.17505 215.734 9.12065 215.852 9.06626 215.951C8.90306 216.226 8.758 216.502 8.61294 216.778C4.0617 225.738 9.02999 237.87 15.2857 244.861C18.477 248.426 25.4761 251.439 28.8125 250.06C33.672 248.032 36.6276 242.281 37.1897 237.24C38.2414 227.905 32.6022 217.743 25.7481 212.544Z" fill="#D14242"/>
<path opacity="0.4" d="M195.559 293.091C196.248 285.233 184.462 278.006 178.84 276.155C173.473 274.382 167.78 275.603 164.298 280.645C160.128 286.651 161.923 295.632 167.326 299.886C171.642 303.293 181.325 303.706 184.788 303.115C190.5 302.15 195.015 299.157 195.559 293.091Z" fill="#D14242"/>
<path d="M25.6031 224.32C32.4571 215.99 39.8914 207.797 48.7038 201.929C55.0683 197.675 62.2487 196.611 66.945 204.016C72.9288 213.469 62.7383 226.546 57.77 233.793C56.5008 235.644 59.3475 237.377 60.5987 235.585C66.2741 227.452 72.5117 218.511 71.4419 207.758C70.8435 201.81 65.4763 195.528 59.8009 195.312C45.0954 194.78 32.8742 212.15 24.769 223.375C24.2975 224.045 25.0772 224.951 25.6031 224.32Z" fill="#3A2119"/>
<path d="M146.655 259.907C150.119 259.434 153.981 254.767 156.882 252.739C162.195 248.997 168.487 245.334 174.96 245.353C184.407 245.373 181.542 261.03 180.073 266.82C178.532 272.905 174.344 278.144 173.02 284.052C172.748 285.233 173.963 286.415 174.978 285.686C180.382 281.905 182.884 270.345 184.208 264.003C185.495 257.839 186.021 247.598 180.146 243.699C174.652 240.056 168.088 242.872 162.757 245.531C158.605 247.598 146.982 253.467 146.13 259.159C146.093 259.494 146.275 259.946 146.655 259.907Z" fill="#3A2119"/>
<path d="M147.87 283.303C132.766 295.356 111.424 301.52 93.2913 294.883C74.3248 287.931 62.3211 264.575 57.4616 244.861C57.2984 244.172 56.2105 244.29 56.3011 245.038C58.5677 266.938 71.2785 287.774 89.6467 297.503C108.287 307.349 133.908 298.349 149.302 285.352C150.39 284.426 148.958 282.437 147.87 283.303Z" fill="#D14242"/>
<path d="M0.036499 156.475C0.036499 156.475 96.7187 165.535 169.049 96.0352C169.049 96.0352 173.727 218.373 228.977 299.531C228.977 299.531 293.692 263.925 284.226 140.149C274.761 15.98 69.1937 -52.6528 0.036499 49.4988V156.475Z" fill="#60195D"/>
<path d="M275.287 161.832C275.504 161.34 275.649 160.769 275.668 160.079C275.704 158.051 275.359 155.747 274.634 153.659C274.453 151.749 274.271 149.858 274.036 147.948C267.998 97.7683 242.231 53.3982 194.108 43.2755C193.618 43.1771 193.401 43.9648 193.89 44.1027C217.136 50.7789 236.773 64.7221 250.5 86.2474C262.141 104.504 268.052 126.561 270.79 148.421C269.412 147.613 267.762 147.338 265.749 147.948C259.584 149.78 255.395 157.322 254.453 163.9C254.199 165.653 254.072 167.425 253.927 169.198C252.385 164.688 249.774 159.804 246.184 157.027C237.027 114.508 214.743 75.6718 182.866 49.0064C182.376 48.5929 181.741 49.4988 182.213 49.932C211.587 78.2517 232.077 113.602 241.832 154.959C240.418 154.664 238.895 154.683 237.263 155.136C228.759 157.539 224.516 167.228 220.889 175.066C219.493 178.099 218.442 181.29 217.154 184.382C216.846 183.495 216.538 182.609 216.157 181.762C215.16 179.478 213.274 176.977 210.953 174.929C210.917 174.791 210.898 174.672 210.862 174.535C202.648 138.022 191.66 102.514 177.861 68.0503C177.662 67.558 176.864 67.9125 177.045 68.4245C189.103 102.357 199.402 136.841 207.091 172.25C204.48 170.911 201.687 170.399 199.149 171.443C192.385 174.259 190.771 180.62 191.533 187.789C191.08 190.112 194.906 192.594 196.048 189.659C200.509 178.257 202.594 189.502 204.099 195.154C205.477 200.353 209.176 204.371 213.727 205.71C215.196 213.627 216.646 221.563 218.151 229.48C222.122 250.454 227.29 271.251 228.813 292.678C228.904 294.037 230.826 294.076 230.79 292.678C230.373 273.161 226.746 254.432 222.957 235.428C221.016 225.679 219.203 215.931 217.335 206.183C217.898 206.163 218.442 206.123 219.022 206.045C232.077 203.859 233.709 186.883 239.62 176.012C239.838 176.74 240.055 177.469 240.237 178.217C241.071 181.388 242.05 184.46 243.591 187.316C244.534 189.049 245.767 190.388 247.163 191.353C247.834 201.082 247.979 210.85 247.744 220.618C247.453 231.706 246.329 242.734 244.752 253.684C242.975 265.993 238.768 276.489 234.652 287.991C234.253 289.074 235.74 289.586 236.284 288.739C248.414 269.971 250.445 245.925 251.715 223.671C252.295 213.509 252.15 203.307 251.406 193.145C254.144 193.697 257.1 193.283 259.784 192.062C265.985 189.206 267.635 182.589 268.433 175.953C268.832 172.664 268.578 169.257 268.632 165.948C268.85 164.885 269.104 163.821 269.376 162.758C269.412 162.62 269.43 162.521 269.466 162.384C270.228 163.23 271.225 163.664 272.204 163.703C273.111 179.36 272.44 195.193 270.264 210.633C266.619 236.413 254.489 258.214 243.029 280.763C242.558 281.689 243.791 282.437 244.317 281.57C257.88 259.671 269.883 236.55 273.6 210.22C275.831 194.287 276.338 177.981 275.287 161.832ZM269.829 160.887C270.3 159.055 270.137 159.942 269.829 160.887V160.887Z" fill="#8F278A"/>
<path d="M173.428 44.0042C148.315 30.8685 115.876 36.4221 89.8378 42.606C79.4661 45.0677 69.185 48.2187 59.2484 52.2362C52.6119 53.2603 46.1205 55.0918 42.911 55.4266C41.261 55.6039 39.5203 55.7811 37.834 55.6826C37.8521 55.6432 37.8702 55.6039 37.9065 55.5645C38.9763 53.5754 40.6082 51.9211 42.0951 50.3062C47.9337 43.9254 57.5439 34.5709 66.1931 33.4484C67.6437 33.2514 68.3146 30.6715 66.5739 30.3761C58.2874 29.0173 49.5113 33.7831 42.3671 37.781C36.474 41.0895 24.1621 48.8686 25.0687 57.8686C25.5402 62.5952 27.6979 65.4901 30.8167 67.1641C19.8647 74.4902 9.85558 83.4115 1.27893 94.3415C0.916281 94.8142 1.51465 95.4838 1.91357 95.0308C11.3424 84.1205 21.9681 75.3764 33.4278 68.2276C41.261 70.5908 52.902 67.8534 61.0979 66.3764C58.4868 68.1882 55.7307 69.744 53.1378 71.6346C48.387 75.081 44.5611 79.0788 42.6753 85.0264C40.5901 91.6238 45.8122 99.0877 51.5421 100.722C52.4306 100.978 53.3191 101.156 54.1894 101.313C37.0361 106.434 19.5564 110.412 2.31248 115.217C0.46297 115.729 1.24267 118.841 3.11031 118.329C23.0379 112.854 43.1105 108.206 62.7117 101.746C65.0689 101.648 67.4443 101.471 69.8196 101.353C72.8115 101.195 74.2802 102.652 74.8786 98.5363C74.3527 102.121 74.3346 104.937 74.7879 108.541C75.6945 115.63 82.1497 120.83 87.8795 122.838C88.1334 122.937 88.3873 122.996 88.6411 123.055C79.0672 126.6 69.2031 129.16 59.2303 131.011C42.6391 134.103 25.4495 132.429 8.98522 136.191C8.00607 136.407 8.22366 138.14 9.22095 138.101C38.7043 136.742 68.5322 135.147 96.1117 122.957C97.9974 122.385 99.8288 121.48 101.588 120.396C128.442 107.103 151.289 87.3896 170.709 63.3041C170.962 62.989 170.545 62.5361 170.292 62.8512C152.558 83.1948 132.159 100.781 109.149 113.484C109.765 111.16 108.986 108.462 106.375 107.911C102.204 107.024 96.7463 106.394 92.8841 104.464C91.2884 103.676 92.8841 94.9323 91.0346 92.2146C90.7445 91.7813 90.4362 91.4071 90.1461 90.9936C118.415 78.2714 145.323 62.3588 171.996 46.1311C172.069 46.1705 172.159 46.2099 172.232 46.2493C173.61 46.9583 174.807 44.7329 173.428 44.0042ZM88.2785 88.7879C81.642 81.9148 73.2648 81.9541 63.9628 82.8403C67.0453 80.0635 70.3999 77.7987 73.2466 74.6083C77.5984 69.7046 81.6782 63.9343 78.9584 57.0218C77.5078 53.3194 73.7 51.862 69.0037 51.606C74.2258 49.8139 79.5386 48.199 84.924 46.7613C111.18 39.7307 145.16 32.9757 171.035 45.6782C143.818 60.803 116.583 76.1642 88.2785 88.7879Z" fill="#8F278A"/>
<path d="M20.4172 34.8466C60.4356 2.76544 125.767 0.323418 166.801 32.444C167.399 32.9166 168.16 31.8335 167.58 31.3411C146.692 13.6364 119.765 7.31471 93.7449 6.84206C68.3413 6.38911 37.8607 12.9274 18.8579 32.6409C17.8243 33.7241 19.2205 35.7919 20.4172 34.8466Z" fill="#8F278A"/>
<path d="M0.036499 427.639V506.67C10.7528 419.919 32.7293 354.103 32.7293 354.103L0.036499 427.639Z" fill="#036358"/>
<path d="M181.832 380.768C115.322 392.939 105.549 389.157 105.549 389.157V418.009C105.549 418.009 167.236 394.337 182.086 381.733C182.086 381.733 181.996 381.359 181.832 380.768Z" fill="#036358"/>
<path d="M114.615 747.664C256.049 659.279 303.538 614.633 303.538 614.633C303.538 614.633 314.526 565.832 327.237 552.026C339.948 538.221 352.658 536.37 355.197 543.735C357.736 551.101 350.954 562.149 350.954 562.149C350.954 562.149 359.422 555.709 362.396 563.075C365.369 570.44 362.396 576.88 353.493 582.867C353.493 582.867 363.338 582.867 363.502 592.536C363.665 602.206 360.691 622.885 316.629 623.81C316.629 623.81 233.401 743.568 113.437 786.323C113.455 786.343 108.015 751.8 114.615 747.664Z" fill="#FBBF9B"/>
<path d="M357.681 602.206C353.148 604.53 337.681 609.67 339.367 598.661C340.11 593.738 344.517 589.976 348.669 586.747C351.733 585.053 354.616 582.749 357.445 580.386C357.645 580.228 357.481 579.873 357.246 580.011C353.13 582.394 348.977 584.659 344.498 586.175C341.615 587.14 338.732 586.904 335.904 585.959C331.697 584.541 331.788 580.838 332.984 577.372C344.226 579.184 351.516 563.311 354.254 554.016C354.29 553.897 354.127 553.819 354.072 553.937C350.5 562.188 346.022 571.346 337.626 574.556C333.075 576.309 327.581 574.241 327.49 568.412C327.381 562.248 333.746 557.029 337.499 553.307C338.261 552.558 337.137 551.377 336.375 552.086C332.114 556.083 325.441 561.519 325.369 568.412C325.314 572.803 327.345 575.62 331.026 576.88C329.394 581.567 329.793 587.081 335.197 588.677C338.043 589.523 340.691 589.504 343.211 588.933C339.258 592.399 336.266 596.81 336.937 601.99C338.388 613.097 353.51 607.622 358.95 604.688C360.473 603.821 359.168 601.438 357.681 602.206Z" fill="#EB9772"/>
<path d="M303.537 614.653C303.537 614.653 284.97 572.449 303.537 557.619C322.105 542.77 355.595 559.549 349.031 573.099C342.468 586.648 322.576 576.112 322.576 576.112L303.537 614.653Z" fill="#FBBF9B"/>
<path d="M338.968 579.617C327.49 578.534 315.323 574.005 309.303 566.619C307.889 564.886 306.547 567.23 307.599 568.609C309.938 571.72 315.577 574.28 318.932 575.679C322.576 577.195 332.114 580.208 338.95 580.011C339.186 580.031 338.968 579.617 338.968 579.617Z" fill="#EB9772"/>
<path d="M114.615 747.664C108.015 751.8 113.437 786.343 113.437 786.343C197.789 756.29 263.99 688.15 295.849 650.338C295.831 641.239 294.979 632.18 293.655 623.2C273.492 640.038 220.273 681.651 114.615 747.664Z" fill="#EB9772"/>
<path d="M315.088 553.503C323.32 554.193 331.497 554.921 339.04 558.9C341.905 560.396 344.589 562.307 346.928 564.63C352.205 569.889 345.768 575.462 342.069 578.416C341.452 578.909 341.96 579.893 342.667 579.539C350.101 575.718 356.049 570.361 349.303 562.051C341.144 551.987 326.203 552.026 315.088 552.854C314.689 552.893 314.689 553.484 315.088 553.503Z" fill="#FFD3B6"/>
<path d="M359.875 563.114C359.857 564.945 359.929 566.58 359.548 568.412C359.204 570.026 358.17 571.346 358.17 573.059C358.17 573.729 358.841 574.418 359.494 574.143C363.429 572.469 363.32 565.536 360.383 562.897C360.183 562.72 359.875 562.819 359.875 563.114Z" fill="#FFD3B6"/>
<path d="M359.911 591.355C359.675 593.757 359.313 596.022 358.787 598.366C358.533 599.469 359.839 600.434 360.618 599.528C362.631 597.105 362.033 594.329 361.706 591.374C361.561 590.114 360.038 590.094 359.911 591.355Z" fill="#FFD3B6"/>
<path d="M352.422 544.149C352.295 544.779 352.296 545.409 352.205 546.04C352.078 546.906 351.969 547.556 352.205 548.422C352.459 549.407 353.746 549.387 354.018 548.422C354.381 547.103 354.272 544.956 353.329 543.893C353.057 543.578 352.513 543.696 352.422 544.149Z" fill="#FFD3B6"/>
<path d="M113.454 736.419L200.853 685.452L216.682 768.796C216.682 768.796 138.368 818.877 115.086 808.045C91.7858 797.194 83.8619 760.111 113.454 736.419Z" fill="#88D5F1"/>
<path d="M164.878 776.378C179.928 764.936 196.193 755.621 212.367 746.089L200.853 685.432L113.455 736.4C83.8627 760.091 91.7684 797.155 115.069 808.006C122.666 811.551 136.139 808.597 150.826 803.004C153.618 791.857 157.625 782.188 164.878 776.378Z" fill="#56C3EC"/>
<path d="M140.073 759.973C137.861 749.909 134.797 737.483 130.118 726.71L127.997 727.951C132.004 738.743 134.325 751.071 136.229 761.135C138.169 771.435 139.475 781.991 140.653 792.409C141.161 796.978 141.234 801.645 141.415 806.273C143.482 805.643 145.585 804.934 147.725 804.166C147.344 799.932 146.619 795.698 146.021 791.601C144.479 781.006 142.358 770.411 140.073 759.973Z" fill="white"/>
<path d="M156.175 711.507L153.491 713.062C157.662 725.529 161.415 738.133 164.171 751.071C166.438 761.745 168.015 772.695 169.52 783.527C170.028 787.15 170.318 790.794 170.554 794.457C172.947 793.314 175.305 792.133 177.644 790.951C175.867 777.776 172.131 764.443 169.647 753.1C166.51 738.743 161.633 724.997 156.175 711.507Z" fill="white"/>
<path d="M199.711 744.12C195.921 727.34 191.044 710.719 183.863 695.338L181.778 696.559C187.852 711.113 191.968 726.631 195.395 742.17C197.807 753.1 199.965 764.128 201.687 775.216C201.814 776.023 201.905 776.831 201.996 777.638C203.682 776.654 205.278 775.728 206.728 774.862C204.643 764.089 201.832 753.494 199.711 744.12Z" fill="white"/>
<path d="M0.0162354 816.868C0.0162354 816.868 56.6801 731.377 105.946 731.416C139.89 731.436 156.354 755.817 120.089 873.98H0.0162354V816.868Z" fill="#88D5F1"/>
<path d="M48.4676 826.735C64.1884 807.534 113.509 758.575 86.9265 736.872C49.7187 759.461 0.0177002 816.868 0.0177002 816.868V873.98H7.39761C21.4321 858.855 35.1221 843.179 48.4676 826.735Z" fill="#56C3EC"/>
<path d="M103.609 783.172C114.054 791.621 125.64 797.844 137.807 802.669C138.206 800.247 138.55 797.903 138.859 795.638C127.979 791.975 117.607 786.737 107.979 780.08C94.7062 770.923 80.3634 758.102 72.4214 742.327C71.7868 742.721 71.134 743.096 70.4994 743.509C77.5529 759.599 90.9165 772.932 103.609 783.172Z" fill="white"/>
<path d="M99.9824 812.93C85.7121 804.619 73.1645 793.768 62.3757 780.671C57.8426 775.157 52.5297 768.363 47.9241 760.958C47.2351 761.588 46.5279 762.218 45.8389 762.868C48.4318 767.338 51.2061 771.592 53.8171 775.59C64.062 791.266 77.0811 803.989 91.8409 814.466C104.008 823.092 117.335 829.709 130.898 835.361C131.478 833.017 132.041 830.713 132.566 828.468C121.397 824.155 110.463 819.054 99.9824 812.93Z" fill="white"/>
<path d="M30.7527 797.667C27.9966 794.24 25.3855 790.695 22.847 787.072C21.8859 788.194 20.9612 789.297 20.0546 790.38C21.215 792.113 22.3574 793.827 23.4453 795.461C36.3194 814.663 53.1644 830.418 71.5689 843.1C87.1809 853.873 104.352 861.731 121.977 867.698C122.757 865.079 123.518 862.499 124.244 859.978C107 854.523 90.3178 846.882 74.7239 837.212C58.0602 826.892 43.3729 813.343 30.7527 797.667Z" fill="white"/>
<path d="M0.507276 816.12C0.180892 816.593 0.0177002 816.868 0.0177002 816.868V823.446C9.33778 835.164 19.492 845.956 30.7885 855.626C38.7305 862.42 47.0895 868.486 55.775 874H73.6899C61.1966 867.56 49.1748 859.899 37.7332 851.49C24.0251 841.387 11.8401 829.197 0.507276 816.12Z" fill="white"/>
<path d="M0 847.512C0 847.512 94.7783 772.656 101.651 759.5C108.523 746.345 91.4238 717.927 0.0181325 738.881L0 847.512Z" fill="#88D5F1"/>
<path d="M66.9268 731.85C67.0356 739.649 68.1416 747.507 69.3746 754.735C71.0066 764.227 74.1253 773.857 78.6222 782.581C80.3266 781.085 81.9586 779.627 83.518 778.209C76.3738 763.853 71.0972 748.117 70.1362 732.185C69.1208 732.047 68.0328 731.949 66.9268 731.85Z" fill="white"/>
<path d="M37.6793 732.421C36.8452 732.5 35.993 732.599 35.1407 732.697C35.8298 758.22 37.6612 785.614 49.9731 806.982C51.9133 805.367 53.8353 803.772 55.7755 802.137C51.6957 794.26 48.051 786.146 45.2768 777.284C40.6711 762.514 39.4744 747.526 37.6793 732.421Z" fill="white"/>
<path d="M9.5738 736.813C8.55838 737.01 7.54296 737.227 6.50941 737.443C1.9763 769.072 5.24014 804.205 20.2901 831.245C22.1577 829.748 24.0979 828.173 26.1287 826.538C13.2909 798.533 7.08965 768.008 9.5738 736.813Z" fill="white"/>
<path d="M117.607 721.019C117.607 721.019 100.925 750.166 103.21 755.128C105.495 760.111 119.511 764.956 127.417 758.673C135.341 752.391 153.6 731.319 153.6 731.319L117.607 721.019Z" fill="#FBBF9B"/>
<path d="M153.6 731.339L117.607 721.039C117.607 721.039 112.022 730.788 107.761 739.965C114.851 746.405 122.068 751.998 129.81 756.646C138.514 748.749 153.6 731.339 153.6 731.339Z" fill="#EB9772"/>
<path d="M54.8506 682.38C54.8506 682.38 89.8644 748.472 167.072 744.572C244.298 740.653 297.952 716.213 275.051 571.897C275.051 571.897 234.471 484.437 232.512 483.019C230.554 481.601 142.539 468.8 140.563 468.446C138.604 468.091 55.4853 570.854 54.8325 571.897C54.1979 572.921 54.8506 682.38 54.8506 682.38Z" fill="#FBBF9B"/>
<path d="M239.729 710.64C209.575 736.301 163.591 740.378 125.205 739.393C137.48 743.233 151.388 745.36 167.091 744.573C238.804 740.949 290.174 719.561 278.804 600.965C274.87 639.939 270.119 684.428 239.729 710.64Z" fill="#FFD3B6"/>
<path d="M173.691 649.392C184.715 648.841 185.114 629.915 181.053 622.294C180.509 621.27 179.294 622.018 179.421 623.042C180.545 631.609 183.355 649.097 169.865 646.596C160.218 644.804 151.896 631.491 148.813 622.254C148.722 621.998 148.36 622.097 148.432 622.373C151.406 634.228 160.889 650.042 173.691 649.392Z" fill="#3A2119"/>
<path d="M253.836 655.163C264.19 655.242 262.105 637.222 259.294 630.9C258.786 629.758 257.281 630.762 257.753 631.885C260.037 637.379 261.669 654.67 252.041 652.622C248.052 651.775 245.55 646.064 243.936 642.539C242.286 638.935 241.089 635.095 239.892 631.294C239.765 630.9 239.221 631.058 239.312 631.471C241.27 639.132 244.353 655.084 253.836 655.163Z" fill="#3A2119"/>
<path d="M236.991 646.241C229.212 646.025 221.488 646.931 213.691 646.556C213.056 646.517 212.966 647.541 213.546 647.718C220.418 649.826 227.798 648.742 234.906 648.92C231.805 654.434 226.438 657.132 222.63 662.095C221.923 663.001 222.884 664.694 223.9 663.867C229.23 659.515 235.686 654.946 238.224 647.974C238.532 647.128 237.735 646.261 236.991 646.241Z" fill="#EB9772"/>
<path opacity="0.6" d="M136.193 650.909C130.227 647.679 123.337 646.714 117.879 651.46C111.152 657.329 117.952 668.023 123.536 671.174C129.375 674.443 137.281 675.703 143.609 673.596C150.264 671.39 151.007 664.281 147.036 658.806C144.262 655.005 140.4 652.484 136.193 650.909Z" fill="#F98380"/>
<path opacity="0.6" d="M250.228 662.39C247.435 665.344 246.057 669.598 248.596 673.576C255.305 684.093 273.437 672.867 273.238 661.937C272.948 647.325 254.616 654.67 250.228 662.39Z" fill="#F98380"/>
<path d="M207.091 716.312C193.6 717.041 181.923 717.198 171.116 706.977C157.208 693.822 160.889 676.058 169.829 661.563C172.984 661.209 175.486 661.366 178.659 662.213C179.928 662.548 180.636 660.716 179.529 659.948C177.082 658.235 173.981 658.314 171.17 658.767C168.124 659.259 164.48 659.83 161.705 661.307C161.542 661.406 161.615 661.642 161.76 661.701C163.736 662.568 166.093 662.115 168.233 661.78C157.897 674.699 152.421 691.399 164.117 706.268C174.869 719.936 191.714 724.544 207.345 718.34C208.288 717.946 208.215 716.233 207.091 716.312Z" fill="#F98380"/>
<path opacity="0.5" d="M246.311 574.93C237.843 570.125 229.339 565.398 221.361 559.707C219.983 558.722 218.732 557.738 217.553 556.753C213.981 549.21 209.375 542.12 205.06 535.602C199.294 526.877 185.205 531.801 188.324 543.263C190.3 550.549 194.217 557.245 199.149 563.331C201.796 569.121 203.682 575.206 203.736 581.508C203.791 588.401 196.501 583.753 193.401 581.823C184.189 576.033 176.955 564.532 170.336 555.729C162.92 545.862 157.208 534.519 151.787 523.273C148.07 515.553 137.807 519.61 137.48 527.488C136.483 551.751 121.433 571.858 107.308 589.405C99.7104 598.838 91.6595 607.779 82.7746 615.775C77.5344 620.482 67.4709 631.983 60.1816 630.86C59.2025 630.703 58.4409 632.141 59.4563 632.731C66.0021 636.552 73.2914 631.55 78.9487 627.985C90.3177 620.836 100.563 611.915 110.3 602.383C125.06 587.908 139.674 571.779 147.381 552.164C151.805 562.543 185.042 596.396 198.768 602.974C213.111 609.847 215.232 596.711 217.064 583.241C217.136 582.69 223.482 585.703 223.519 585.151C227.254 587.751 230.935 590.134 234.38 592.241C248.959 601.182 263.936 608.469 279.693 612.014C279.203 604.668 278.46 596.928 277.445 588.775C266.946 585.703 256.828 580.917 246.311 574.93Z" fill="#EB9772"/>
<path d="M41.3765 646.537C41.3765 646.537 129.446 611.383 142.556 533.79C142.556 533.79 186.291 603.467 210.788 600.768C235.285 598.07 201.595 551.829 201.595 551.829C201.595 551.829 271.604 613.825 295.285 594.762C318.948 575.698 350.607 413.244 199.564 415.332C199.564 415.332 218.059 373.069 167.488 374.192C116.916 375.314 71.7483 419.487 71.7483 419.487C87.5961 378.13 -1.08971 347.132 0.0163681 447.334V646.537H41.3765Z" fill="#FDD866"/>
<path d="M98.4049 545.468C91.9135 541.726 84.8056 541.254 77.6251 541.274C80.0911 528.177 80.1637 514.47 69.0303 506.593C59.4383 499.798 45.6395 502.26 33.4001 504.348C35.2133 501.65 37.5343 499.247 39.9278 496.963C39.8915 496.963 39.8552 496.962 39.8371 496.943C41.0338 495.446 40.0909 492.492 38.0057 493.359C29.701 496.825 22.1761 501.827 15.7935 508.602C11.1334 513.545 13.7445 521.383 19.4199 523.51C29.9186 527.488 42.1399 523.766 53.0012 524.12C59.3113 524.317 58.8218 524.416 57.5706 530.363C56.1019 537.315 52.7837 543.597 51.0611 550.451C48.9214 558.919 54.8689 566.186 62.4664 566.718C69.1754 567.191 75.9207 566.324 82.6297 566.482C85.1863 566.541 88.1601 566.639 90.4629 567.959C88.7766 566.974 89.8101 570.617 89.8283 571.897C89.8283 573.827 89.7013 575.718 89.8101 577.668C90.4629 588.676 106.492 592.497 108.505 580.425C110.789 566.6 111.424 552.972 98.4049 545.468Z" fill="#FCEA68"/>
<path d="M79.6196 450.466C89.248 445.542 97.4257 436.168 106.583 430.004C115.05 424.312 124.026 420.551 133.944 419.921C141.85 419.408 149.792 420.157 157.372 422.678C160.926 423.859 164.044 425.907 166.637 428.783C168.668 431.028 169.013 432.544 172.023 432.899C172.784 432.997 173.509 432.367 173.908 431.717C177.789 425.317 168.233 419.034 163.917 416.75C155.431 412.26 145.15 411.629 135.885 411.984C126.075 412.358 117.39 415.883 108.831 420.925C98.3505 427.089 84.2797 437.881 78.9487 449.717C78.713 450.229 79.1663 450.702 79.6196 450.466Z" fill="#FCEA68"/>
<path d="M286.04 473.468C269.865 455.98 242.286 453.144 220.799 453.026C195.432 452.868 167.508 457.122 143.863 467.402C142.956 467.796 142.974 469.549 144.117 469.411C184.915 464.291 229.847 450.879 269.14 471.065C285.641 479.553 293.51 496.45 292.966 515.869C292.44 535.05 281.035 552.499 262.667 554.055C257.789 554.468 257.753 562.759 262.667 562.346C302.667 558.939 311.606 501.079 286.04 473.468Z" fill="#FCEA68"/>
<path d="M246.547 494.008C225.948 478.509 193.618 481.247 170.028 483.59C168.813 483.709 168.813 485.52 170.028 485.639C189.085 487.47 208.197 486.958 226.764 492.827C236.211 495.82 246.928 501.551 250.717 512.107C252.821 517.956 250.772 524.435 247.272 529.024C243.392 534.125 237.753 534.302 232.803 537.217C229.774 538.989 230.554 544.031 233.745 544.996C245.042 548.383 255.522 536.35 259.258 526.011C263.863 513.21 255.776 500.96 246.547 494.008Z" fill="#FCEA68"/>
<path d="M120.472 490.089C119.221 489.833 118.695 491.783 119.946 492.157C133.872 496.549 147.489 502.28 159.602 511.063C165.749 515.534 171.261 521.56 173.074 529.516C173.799 532.707 172.276 542.258 178.351 539.974C180.164 539.284 181.234 537.788 181.343 535.7C183.029 504.801 141.506 494.402 120.472 490.089Z" fill="#FCEA68"/>
<path d="M104.316 513.052C109.339 529.891 96.3015 546.217 86.0023 557.422C74.4338 570.026 62.6477 577.077 46.9087 580.819C44.9685 581.272 44.896 584.107 46.3829 585.151C60.3811 594.939 83.3912 570.046 91.4783 560.278C99.4928 550.608 117.281 525.44 105.966 511.989C105.313 511.201 104.008 512.028 104.316 513.052Z" fill="#FCEA68"/>
<path d="M87.2897 481.385C87.1627 480.105 85.4583 480.046 85.4039 481.385C84.7148 500.645 72.0584 515.593 59.4563 527.764C52.6023 534.4 44.8235 539.915 36.7908 544.72C31.3148 548.009 23.0645 549.19 18.6946 553.976C17.1896 555.63 18.0237 558.112 19.8732 558.84C26.2558 561.361 35.2133 555.099 40.653 551.888C49.2478 546.827 56.9722 540.013 64.062 532.766C76.4102 520.122 89.248 500.842 87.2897 481.385Z" fill="#FCEA68"/>
<path d="M0.0184326 587.593V721.038C0.0184326 721.038 2.93776 750.54 23.7538 727.872C23.7538 727.872 90.7532 746.148 66.4376 691.557L54.5609 600.355L0.0184326 587.593Z" fill="#FDD866"/>
<path d="M62.0673 727.833C71.3149 723.441 76.1018 713.259 66.4372 691.537L59.2387 636.198C53.2006 638.62 47.5795 640.708 43.4997 642.598C4.2067 635.607 -24.3156 714.973 60.0546 697.268C67.7246 711.093 64.8597 721.019 62.0673 727.833Z" fill="#FCBD30"/>
<path d="M72.639 653.548C72.639 653.548 68.7767 604.629 23.3731 618.02C-16.4821 629.758 -7.3977 716.844 67.3262 691.537L72.639 653.548Z" fill="#FBBF9B"/>
<path d="M51.4417 652.287C41.8859 644.883 28.8124 641.594 17.4977 645.631C16.9356 645.828 17.0082 646.852 17.6428 646.793C27.6519 645.788 36.972 647.384 45.8932 652.524C48.3592 653.942 50.39 655.714 52.0763 657.743C50.6076 657.605 49.0845 657.743 47.7971 658.038C44.0255 658.885 40.943 661.937 38.8034 665.246C36.7 668.476 35.8659 672.572 36.6275 676.412C37.2621 679.603 41.0337 684.841 44.3519 682.911C44.9503 682.557 45.186 681.769 45.0409 681.08C44.4244 678.421 41.36 678.047 40.4534 675.27C39.5649 672.552 40.6166 669.52 41.8678 667.176C43.3546 664.379 45.8569 662.252 48.613 661.15C50.6257 660.342 52.4934 660.697 54.4154 661.012C57.5523 666.25 59.0392 672.611 60.0546 679.012C60.2178 680.075 61.8134 680.312 62.2305 679.327C65.9295 670.524 57.9694 657.329 51.4417 652.287Z" fill="#EB9772"/>
<path d="M38.1145 628.517C43.4455 631.826 50.7528 636.237 53.0556 642.795C55.0865 648.546 62.6658 645.099 60.218 639.506C56.2288 630.408 47.3439 626.961 38.6404 626.39C37.5705 626.351 37.2442 627.985 38.1145 628.517Z" fill="#FFD3B6"/>
<path d="M29.3021 628.616C29.3746 628.675 29.4472 628.734 29.5197 628.793C30.8978 629.915 32.983 629.009 33.799 627.572C34.2885 626.725 34.2704 625.898 34.1072 624.952C33.8171 623.18 31.7681 622.057 30.2631 622.589C30.1725 622.609 30.0999 622.648 30.0093 622.668C28.9939 623.022 28.196 623.81 27.924 624.933C27.5433 626.469 28.2142 627.71 29.3021 628.616Z" fill="#FFD3B6"/>
<path d="M1278.35 60.1282C1279.04 63.005 1276.4 65.8983 1272.46 66.5927C1268.52 67.2706 1264.8 65.485 1264.11 62.5917C1263.43 59.7149 1266.05 56.8216 1269.99 56.1437C1273.93 55.4658 1277.65 57.2514 1278.35 60.1282Z" fill="#11A295"/>
<path d="M680.087 57.6585C679.509 55.2116 681.863 52.7316 685.375 52.1364C688.848 51.5247 692.167 53.0292 692.746 55.4761C693.325 57.923 690.951 60.3865 687.478 60.9982C683.966 61.5934 680.666 60.1054 680.087 57.6585Z" fill="#FDD866"/>
<path d="M1473.2 156.178C1473.2 156.178 1488.78 170.999 1476.74 183.559C1464.71 196.118 1452.52 207.928 1477.67 227.158L1489.01 217.726C1489.01 217.726 1468.1 204.452 1478.61 194.604C1489.14 184.773 1504.18 175.99 1480.03 154.964L1473.2 156.178Z" fill="#E541AE"/>
<path d="M853.697 60.3308C853.697 60.3308 835.558 69.6628 837.079 74.62C838.6 79.5937 860.456 86.231 857.259 96.9437C854.063 107.656 839.967 114.427 839.967 114.427L821 117.737C821 117.737 838.099 107.989 842.182 98.0416C846.283 88.0941 822.772 82.039 825.14 72.3909C827.509 62.7428 841.951 59 841.951 59L853.697 60.3308Z" fill="#11A295"/>
<path d="M418.697 750.331C418.697 750.331 400.558 759.663 402.079 764.62C403.6 769.594 425.456 776.231 422.259 786.944C419.063 797.656 404.967 804.427 404.967 804.427L386 807.737C386 807.737 403.099 797.989 407.182 788.042C411.283 778.094 387.772 772.039 390.14 762.391C392.509 752.743 406.951 749 406.951 749L418.697 750.331Z" fill="#11A295"/>
<path d="M1354.65 130.317C1354.65 130.317 1339.73 122.532 1355.75 118.789C1372.5 114.88 1430.6 98.5778 1377.95 61L1370.52 61.1331C1370.52 61.1331 1389.62 81.8266 1381.42 92.739C1373.19 103.651 1341.5 110.205 1335.82 116.46C1330.16 122.715 1339.53 133.976 1339.53 133.976L1354.65 130.317Z" fill="#FDD866"/>
<path d="M1365.09 617C1365.09 617 1356.62 633.352 1371.64 625.717C1386.66 618.065 1425.89 601.48 1398.27 659.468L1391.73 663.278C1391.73 663.278 1409.75 634.084 1397.29 629.609C1384.83 625.134 1363.38 640.139 1355.41 638.076C1347.44 636.013 1355.95 623.87 1355.95 623.87L1365.09 617Z" fill="#FDD866"/>
<path d="M1334.12 373.336C1334.97 376.929 1332.29 380.439 1328.17 381.154C1324.05 381.869 1320 379.541 1319.16 375.947C1318.31 372.354 1320.99 368.844 1325.13 368.129C1329.25 367.414 1333.27 369.743 1334.12 373.336Z" fill="#E541AE"/>
<path d="M1200.33 264.036C1201.43 268.76 1198.04 273.335 1192.77 274.249C1187.49 275.164 1182.31 272.087 1181.21 267.379C1180.1 262.655 1183.5 258.081 1188.78 257.166C1194.06 256.234 1199.24 259.328 1200.33 264.036Z" fill="#FDD866"/>
<path d="M664.435 748C664.435 748 652.554 765.2 667.227 775.447C681.9 785.711 696.554 795.176 676.316 818.348L663.048 811.045C663.048 811.045 680.514 794.461 667.939 786.609C655.365 778.758 638.612 772.736 657.464 748H664.435V748Z" fill="#E541AE"/>
<path d="M1263.85 764.592C1263.85 764.592 1283.76 770.63 1283.41 775.753C1283.06 780.877 1263.15 791.141 1268.74 801.088C1274.32 811.052 1289.69 815.277 1289.69 815.277H1309.04C1309.04 815.277 1290.04 808.64 1283.76 799.591C1277.48 790.542 1299.12 780.578 1294.58 771.528C1290.04 762.479 1275.03 761.281 1275.03 761.281L1263.85 764.592Z" fill="#11A295"/>
<path d="M1180.62 97.4483C1180.62 97.4483 1170.18 100.26 1169.39 104.135C1168.6 108.011 1175.98 117.46 1171.51 124.446C1167.04 131.433 1159.05 133.279 1159.05 133.279L1150 131.599C1150 131.599 1160.13 128.256 1164.75 122.018C1169.37 115.763 1161.13 106.414 1164.94 100.01C1168.76 93.6057 1176 94.0049 1176 94.0049L1180.62 97.4483Z" fill="#11A295"/>
<path d="M1082.83 219.092C1082.83 219.092 1095.67 208.911 1079.11 207.98C1061.8 207.015 1001.11 200.96 1044.11 155.131L1051.42 154C1051.42 154 1037.44 177.555 1048 186.837C1058.55 196.136 1091.13 197.117 1098.14 202.291C1105.13 207.447 1098.5 220.09 1098.5 220.09L1082.83 219.092Z" fill="#FDD866"/>
<path d="M485.83 402.092C485.83 402.092 498.674 391.911 482.113 390.98C464.802 390.015 404.107 383.96 447.106 338.131L454.423 337C454.423 337 440.443 360.555 450.996 369.837C461.548 379.136 494.129 380.117 501.138 385.291C508.128 390.447 501.504 403.09 501.504 403.09L485.83 402.092Z" fill="#FDD866"/>
<path d="M889.43 770C889.43 770 904.18 782.592 886.985 780.164C869.77 777.735 826.27 774.558 876.317 819.954L884 821.451C884 821.451 854.962 799.876 864.705 791.808C874.449 783.74 900.733 791.01 907.3 786.601C913.866 782.177 900.83 773.527 900.83 773.527L889.43 770Z" fill="#FDD866"/>
<path d="M981 83.6539C981 87.3301 984.408 90.3077 988.625 90.3077C992.842 90.3077 996.251 87.3301 996.251 83.6539C996.251 79.9776 992.823 77 988.625 77C984.408 77 981 79.9776 981 83.6539Z" fill="#E541AE"/>
<path d="M364 178.517C364 183.225 367.428 187.034 371.664 187.034C375.9 187.034 379.328 183.225 379.328 178.517C379.328 173.809 375.9 170 371.664 170C367.428 169.983 364 173.809 364 178.517Z" fill="#11A295"/>
<path d="M484 535.517C484 540.225 488.506 544.034 494.071 544.034C499.617 544.034 504.142 540.225 504.142 535.517C504.142 530.809 499.636 527 494.071 527C488.506 526.983 484 530.809 484 535.517Z" fill="#11A295"/>
<path d="M666.863 192.541C666.863 190.029 663.975 188 660.432 188C656.888 188 654 190.029 654 192.541C654 195.053 656.888 197.083 660.432 197.083C663.994 197.083 666.863 195.053 666.863 192.541Z" fill="#FDD866"/>
<path d="M560.23 630L567.451 636.521C567.451 636.521 571.726 649.562 560.23 654.386C548.735 659.211 539.549 653.538 533.638 660.907C527.726 668.276 526.744 675.08 526.744 675.08L521.16 670.822C521.16 670.822 519.196 647.283 529.036 645.587C538.895 643.89 552.027 660.059 560.23 630Z" fill="#E541AE"/>
<path d="M523.23 49L530.451 55.5208C530.451 55.5208 534.726 68.5624 523.23 73.3865C511.735 78.2105 502.549 72.5381 496.638 79.9073C490.726 87.2765 489.744 94.0801 489.744 94.0801L484.16 89.8216C484.16 89.8216 482.196 66.2835 492.036 64.5867C501.895 62.89 515.027 79.0589 523.23 49Z" fill="#E541AE"/>
<path d="M675.009 314.551C675.336 314.584 675.645 314.651 675.933 314.751C676.646 314.967 676.819 315.799 676.145 316.148C672.949 317.812 668.982 316.248 666.19 314.601C663.956 313.27 659.238 309.428 660.105 306.816C660.278 306.267 661.01 305.851 661.684 306.051C662.897 306.417 663.224 306.999 663.879 307.931C664.765 309.178 665.901 310.276 667.114 311.307C669.829 313.636 672.275 314.302 675.953 314.767C675.587 315.017 675.202 315.25 674.836 315.499C674.778 315.316 674.72 315.15 674.663 314.967C674.508 314.734 674.74 314.501 675.009 314.551Z" fill="#D3744A"/>
<path d="M1774.12 4.77107C1774.12 4.77107 1784.07 5.81451 1785.61 9.77237C1787.14 13.7302 1782.48 25.1001 1787.97 31.6845C1793.46 38.269 1801.01 38.7367 1801.01 38.7367L1808.77 35.2826C1808.77 35.2826 1798.98 33.6275 1793.51 27.8526C1788.04 22.0777 1793.49 10.6359 1788.71 4.55518C1783.95 -1.52553 1777.53 0.237517 1777.53 0.237517L1774.12 4.77107Z" fill="#11A295"/>
<path d="M1649.47 436.375C1650.35 440.81 1647.62 445.136 1643.4 446.004C1639.17 446.873 1635.04 443.995 1634.16 439.542C1633.29 435.108 1636.01 430.782 1640.23 429.913C1644.46 429.044 1648.59 431.922 1649.47 436.375Z" fill="#E541AE"/>
<path d="M1596.34 508.415C1597.33 513.429 1594.11 518.353 1589.11 519.384C1584.13 520.416 1579.28 517.194 1578.3 512.18C1577.31 507.148 1580.55 502.243 1585.53 501.211C1590.52 500.162 1595.36 503.402 1596.34 508.415Z" fill="#11A295"/>
<path d="M1579.37 775.147L1569.95 776.83C1569.95 776.83 1558.62 785.88 1564.04 796.505C1569.46 807.149 1579.78 807.312 1579.5 817.05C1579.21 826.806 1575.66 833.304 1575.66 833.304L1582.44 832.689C1582.44 832.689 1598.67 813.176 1592.49 806.189C1586.34 799.221 1566.52 806.044 1579.37 775.147Z" fill="#E541AE"/>
<path d="M1907.43 196.668C1900.21 184.36 1889.21 178.368 1875.12 175.382C1887.5 174.386 1885.09 150.765 1881.66 143.778C1872.03 121.478 1837.33 118.165 1815.67 115.505L1597.12 237.286C1592.64 255.26 1587.84 274.555 1592.31 292.855C1594.03 300.168 1598.49 310.159 1607.77 310.159C1614.3 309.833 1618.77 303.842 1622.2 298.846C1621.16 317.472 1625.63 335.446 1639.74 348.424C1654.51 362.072 1673.77 361.728 1688.54 348.75C1690.3 347.048 1691.93 345.238 1693.52 343.392C1697.88 353.945 1705.72 363.61 1713.97 370.706C1725.66 381.349 1745.59 390.997 1759.67 378.688C1772.05 368.045 1770.68 349.401 1769.3 335.102C1776.17 342.089 1783.39 349.401 1792.33 353.727C1808.47 361.71 1832.87 362.054 1846.62 349.401C1862.43 335.428 1848.35 314.141 1839.74 300.149C1855.21 305.145 1882.36 312.802 1893.35 296.149C1899.88 285.506 1895.07 271.188 1888.54 261.885C1887.43 260.165 1886.23 258.59 1884.95 257.106C1893.87 257.649 1902.82 254.011 1908.47 245.92C1918.41 231.602 1915.67 210.967 1907.43 196.668Z" fill="#3A2119"/>
<path d="M1659.89 202.261L1597.1 237.25C1592.63 255.224 1587.82 274.519 1592.29 292.819C1594.02 300.131 1598.47 310.123 1607.75 310.123C1614.28 309.797 1618.75 303.806 1622.19 298.81C1621.15 317.436 1625.62 335.409 1639.72 348.388C1654.49 362.036 1673.75 361.692 1688.52 348.713C1690.28 347.012 1691.92 345.202 1693.5 343.356C1697.87 353.908 1705.7 363.574 1713.96 370.67C1725.65 381.313 1745.57 390.96 1759.66 378.652C1761.37 377.186 1762.79 375.539 1764.02 373.801C1740.68 347.718 1719.77 318.793 1699.94 286.936C1683.45 259.423 1668.8 232.815 1659.89 202.261Z" fill="#0F0807"/>
<path d="M1808.95 368.298L1595.13 333.835C1595.13 333.835 1596.54 321.707 1586.96 309.308C1577.38 296.891 1562.12 286.321 1561.75 292.891C1561.4 299.462 1574.18 316.766 1574.18 316.766C1574.18 316.766 1525.19 307.48 1520.94 315.155C1517.7 320.965 1552.89 327.554 1552.89 327.554C1552.89 327.554 1513.85 321.707 1512.07 329.02C1510.08 337.238 1551.12 341.835 1551.12 341.835C1551.12 341.835 1519.53 340.695 1524.5 348.732C1529.46 356.768 1578.46 359.32 1591.94 349.094L1826.22 413.55C1826.19 413.55 1817.26 381.657 1808.95 368.298Z" fill="#A26455"/>
<path d="M1565.92 339.681C1565.64 339.717 1565.34 339.79 1565.08 339.898C1564.43 340.134 1564.27 341.039 1564.88 341.419C1567.81 343.229 1571.43 341.527 1573.99 339.736C1576.03 338.287 1580.34 334.106 1579.55 331.264C1579.39 330.667 1578.72 330.215 1578.11 330.432C1577 330.83 1576.7 331.464 1576.1 332.477C1575.29 333.835 1574.25 335.029 1573.14 336.152C1570.66 338.686 1568.42 339.41 1565.06 339.917C1565.39 340.188 1565.75 340.441 1566.08 340.713C1566.13 340.514 1566.19 340.333 1566.24 340.134C1566.38 339.88 1566.17 339.645 1565.92 339.681Z" fill="#8C4737"/>
<path d="M1808.95 368.298L1627.84 339.12C1627.1 344.532 1626.29 349.872 1626.59 355.411C1626.62 356.515 1626.73 357.619 1626.87 358.705L1826.2 413.55C1826.19 413.55 1817.26 381.657 1808.95 368.298Z" fill="#935445"/>
<path d="M1806.77 355.61L1736.32 351.827V413.568C1736.32 413.568 1815.34 421.478 1834.57 413.568C1853.79 405.658 1839.2 357.347 1806.77 355.61Z" fill="#FDD866"/>
<path d="M1806.77 355.61L1736.32 351.827V392.173C1742.21 391.34 1774.9 383.937 1785.91 381.675C1789.75 387.557 1803.99 415.36 1804.96 417.043C1817.7 416.881 1828.83 415.921 1834.58 413.568C1853.79 405.658 1839.2 357.347 1806.77 355.61Z" fill="#FCC74F"/>
<path d="M1772.58 400.753C1768.97 399.558 1767.18 405.296 1770.77 406.491C1774.38 407.704 1776.19 401.948 1772.58 400.753Z" fill="#FCC74F"/>
<path d="M1751.19 409.115C1751.88 406.925 1750.68 404.518 1748.55 403.812C1746.42 403.106 1744.08 404.337 1743.39 406.527C1742.71 408.717 1743.9 411.124 1746.03 411.83C1748.16 412.536 1750.5 411.305 1751.19 409.115Z" fill="#FCC74F"/>
<path d="M1755.93 384.915C1754.13 384.317 1752.14 385.367 1751.56 387.214C1750.98 389.06 1752 391.105 1753.8 391.702C1755.59 392.3 1757.58 391.25 1758.16 389.404C1758.73 387.557 1757.72 385.512 1755.93 384.915Z" fill="#FCC74F"/>
<path d="M1785.59 379.159C1783.67 378.525 1781.54 379.629 1780.91 381.62C1780.29 383.593 1781.37 385.784 1783.3 386.435C1785.22 387.069 1787.35 385.965 1787.98 383.973C1788.6 382.001 1787.53 379.81 1785.59 379.159Z" fill="#FCC74F"/>
<path d="M1793.65 414.799C1795.71 415.034 1797.53 413.079 1797.61 411.07C1797.72 408.681 1795.38 406.364 1793 407.088C1792.95 407.106 1792.9 407.124 1792.82 407.142C1791.19 407.631 1789.96 408.934 1789.87 410.763C1789.78 412.971 1791.43 414.564 1793.46 414.799C1793.53 414.781 1793.6 414.799 1793.65 414.799Z" fill="#FCC74F"/>
<path d="M1846.54 491.654L1919.84 488.831V382.381C1919.84 382.381 1833.46 339.428 1825.18 335.88C1816.93 332.332 1784.55 350.741 1796.26 378.362C1807.98 405.984 1846.54 491.654 1846.54 491.654Z" fill="#FDD866"/>
<path d="M1840.94 398.762C1839.34 398.762 1838 400.137 1838 401.785C1838 403.432 1839.34 404.807 1840.94 404.807C1842.54 404.807 1843.88 403.432 1843.88 401.785C1843.88 400.137 1842.54 398.762 1840.94 398.762Z" fill="#FCC74F"/>
<path d="M1837.49 418.926C1835.94 418.926 1834.65 420.247 1834.65 421.84C1834.65 423.433 1835.94 424.754 1837.49 424.754C1839.04 424.754 1840.32 423.433 1840.32 421.84C1840.32 420.247 1839.04 418.926 1837.49 418.926Z" fill="#FCC74F"/>
<path d="M1858.26 441.588C1860.52 441.588 1862.34 439.708 1862.34 437.389C1862.34 435.069 1860.52 433.189 1858.26 433.189C1856 433.189 1854.18 435.069 1854.18 437.389C1854.18 439.708 1856 441.588 1858.26 441.588Z" fill="#FCC74F"/>
<path d="M1859.53 460.684C1857.65 460.684 1856.06 462.313 1856.06 464.25C1856.06 466.187 1857.65 467.816 1859.53 467.816C1861.41 467.816 1863 466.187 1863 464.25C1862.98 462.313 1861.41 460.684 1859.53 460.684Z" fill="#FCC74F"/>
<path d="M1873.08 372.968C1873.08 371.086 1871.55 369.511 1869.72 369.511C1867.89 369.511 1866.36 371.086 1866.36 372.968C1866.36 374.851 1867.89 376.426 1869.72 376.426C1871.55 376.426 1873.08 374.851 1873.08 372.968Z" fill="#FCC74F"/>
<path d="M1819.85 343.627C1816.75 343.627 1816.75 348.569 1819.85 348.569C1822.96 348.587 1822.96 343.627 1819.85 343.627Z" fill="#FCC74F"/>
<path d="M1811.05 382.797C1807.14 382.797 1807.14 389.042 1811.05 389.042C1814.95 389.042 1814.95 382.797 1811.05 382.797Z" fill="#FCC74F"/>
<path d="M1843.46 365.095C1845.66 365.095 1847.45 363.255 1847.45 360.986C1847.45 358.716 1845.66 356.877 1843.46 356.877C1841.25 356.877 1839.46 358.716 1839.46 360.986C1839.46 363.255 1841.25 365.095 1843.46 365.095Z" fill="#FCC74F"/>
<path d="M1831.5 380.281C1829.37 380.281 1827.61 382.109 1827.61 384.281C1827.61 386.471 1829.39 388.281 1831.5 388.281C1833.63 388.281 1835.39 386.453 1835.39 384.281C1835.39 382.109 1833.63 380.281 1831.5 380.281Z" fill="#FCC74F"/>
<path d="M1817.68 412.373C1817.61 412.319 1817.54 412.265 1817.47 412.21C1816.15 411.179 1814.29 412.591 1814.29 414.093C1814.29 415.595 1816.15 417.007 1817.47 415.975C1817.54 415.921 1817.61 415.867 1817.68 415.812C1818.9 414.835 1818.9 413.315 1817.68 412.373Z" fill="#FCC74F"/>
<path d="M1786.84 347.699C1786.84 347.699 1803.93 368.443 1809.16 371.321C1815.13 374.615 1821.01 366.09 1820.04 359.085C1819.13 352.496 1806.89 331.608 1806.89 331.608L1786.84 347.699Z" fill="#A26455"/>
<path d="M1806.91 331.59L1786.86 347.682C1786.86 347.682 1801.13 364.986 1807.58 370.181C1811.22 364.425 1814.62 358.47 1817.84 352.515C1814.05 343.826 1806.91 331.59 1806.91 331.59Z" fill="#935445"/>
<path d="M1662.54 332.604C1662.54 332.604 1632.08 333.346 1636.36 358.995C1640.64 384.661 1675.35 383.684 1689.14 364.37L1662.54 332.604Z" fill="#A26455"/>
<path d="M1689.14 364.389L1662.54 332.604C1662.54 332.604 1652.08 332.857 1644.28 338.233C1656.78 349.564 1669.45 360.968 1683.1 370.724C1685.39 368.914 1687.43 366.796 1689.14 364.389Z" fill="#935445"/>
<path d="M1681.85 356.587C1671.36 348.297 1646.53 349.98 1648.24 368.298C1648.28 368.588 1648.63 368.642 1648.73 368.371C1651.22 361.239 1653.89 356.334 1661.44 354.27C1663.35 353.745 1665.25 353.583 1667.13 353.691C1664.84 355.338 1662.69 358.343 1662.52 361.185C1662.32 364.497 1664.05 367.574 1666.22 369.891C1667.98 371.774 1671.74 372.932 1673.42 370.434C1673.73 369.946 1673.31 369.149 1672.73 369.203C1670.39 369.439 1669.42 369.131 1667.73 367.303C1666.41 365.873 1665.37 363.683 1665.39 361.71C1665.41 359.737 1666.83 357.637 1668.03 356.225C1669.12 354.94 1670.14 354.542 1671.39 354.361C1674.7 355.194 1677.87 356.732 1680.76 358.524C1681.99 359.266 1682.92 357.42 1681.85 356.587Z" fill="#8C4737"/>
<path d="M1607.01 251.712C1607.01 251.712 1643.65 391.395 1743.37 377.276C1843.1 363.158 1879.74 255.911 1850.74 200.976C1821.75 146.04 1780.41 114.129 1780.41 114.129L1607.01 251.712Z" fill="#A26455"/>
<path d="M1842.28 186.079C1837.95 193.319 1833.46 200.397 1827.88 206.804C1818.44 217.61 1809.34 215.475 1798.23 207.728C1788.57 200.976 1779.13 187.111 1776.7 174.078C1776.67 171.49 1776.47 168.902 1776.1 166.368C1776.26 160.431 1767.19 157.589 1764.68 163.309C1758.37 177.644 1755.19 193.428 1748.76 207.872C1743.45 219.819 1736.44 233.213 1724.98 239.892C1712.94 246.915 1706.27 237.431 1705.9 226.082C1705.53 214.606 1708.89 203.528 1712.15 192.686C1714.31 185.5 1704.45 179.092 1699.51 185.12C1675.02 214.932 1645.44 245.25 1608.95 258.102C1609.51 259.894 1610.22 261.993 1611.04 264.401C1627.96 264.419 1644.47 253.667 1657.91 244.255C1670.21 235.621 1682.25 225.882 1693.17 215.094C1691.3 237.069 1695.21 259.676 1721.85 257.504C1739.47 256.074 1752.97 240.291 1761.37 225.665C1766.61 216.543 1771.3 205.899 1774.1 194.912C1777.7 202.913 1782.63 210.443 1788.3 217.031C1799.43 229.973 1814.59 236.815 1830.31 229.086C1839.81 224.416 1847.1 215.42 1853.24 206.135C1852.49 204.379 1851.66 202.641 1850.78 200.976C1848.02 195.799 1845.18 190.84 1842.28 186.079Z" fill="#935445"/>
<path d="M1723.09 358.198C1683.1 351.085 1651.32 326.848 1624.81 297.054C1644.56 336.459 1682.02 385.983 1743.39 377.276C1776.15 372.643 1802.09 357.945 1821.15 338.378C1791.7 356.008 1757.18 364.298 1723.09 358.198Z" fill="#B77965"/>
<path d="M1796.7 240.508C1786.91 239.621 1773.87 243.748 1765.49 251.241C1768.83 243.874 1775.26 238.444 1780.59 231.657C1781.28 230.77 1780.2 229.611 1779.36 230.389C1769.8 239.241 1757.79 246.39 1758.48 261.342C1758.6 264.183 1762.19 264.527 1763.13 261.993C1768.23 248.001 1785.13 246.771 1797.12 243.621C1798.88 243.15 1798.35 240.671 1796.7 240.508Z" fill="#3A2119"/>
<path d="M1664.76 325.617C1668.91 323.155 1671.74 317.635 1675.23 314.141C1680.21 309.164 1686.18 304.819 1693.05 303.245C1694.7 302.864 1694.96 300.385 1693.52 299.57C1684.16 294.267 1671.97 300.186 1663 303.643C1662.45 303.86 1662.66 304.675 1663.24 304.548C1669.67 303.154 1678.7 299.95 1685.99 301.054C1681.8 302.683 1677.94 305.163 1674.35 308.059C1670.09 311.48 1662.75 317.562 1661.92 323.391C1661.69 325.02 1663.15 326.576 1664.76 325.617Z" fill="#3A2119"/>
<path d="M1732.16 289.579C1727.41 291.66 1719.98 290.737 1715.12 289.615C1713.99 289.361 1712.32 289.271 1713.41 288.547C1714.77 287.66 1715.81 287.045 1717.02 285.886C1719.84 283.225 1723.43 279.551 1724.13 275.551C1724.24 274.917 1723.53 274.628 1723.16 275.134C1721.12 277.958 1718.5 280.112 1716.03 282.501C1714.19 284.275 1711.28 285.253 1709.73 287.262C1708.01 289.506 1710.38 291.624 1712.36 292.366C1716.05 293.76 1720.19 294.013 1724.1 294.068C1727.27 294.104 1731.37 294.194 1733.8 291.751C1734.98 290.574 1733.48 288.999 1732.16 289.579Z" fill="#8C4737"/>
<path d="M1686.83 331.97C1709.43 342.505 1738.57 351.085 1760.2 335.735C1781.42 320.676 1789.15 295.389 1790.57 269.505C1790.64 268.292 1788.88 268.075 1788.79 269.288C1787.16 293.561 1780.1 317.653 1760.42 332.206C1737.6 349.075 1710.77 338.378 1687.13 330.667C1686.42 330.45 1686.27 331.645 1686.83 331.97Z" fill="#8C4737"/>
<path d="M1681.51 323.354C1674.17 323.463 1662.98 328.133 1661.78 336.658C1660.9 342.867 1664.42 346.397 1669.12 347.121C1671.48 348.261 1674.37 348.695 1677.23 348.243C1683.52 347.247 1691.79 343.446 1693.96 336.713C1696.56 328.549 1688.48 323.246 1681.51 323.354Z" fill="#891A1A"/>
<path d="M1799.97 248.454C1792.05 251.875 1784.76 262.066 1787.39 271.225C1788.58 275.37 1792.79 277.379 1796.73 277.053C1797.19 277.017 1797.65 276.908 1798.11 276.818C1801.12 276.89 1804.3 275.804 1806.96 273.541C1812.05 269.197 1816.52 262.011 1816.34 255.006C1816.12 245.847 1806.17 245.775 1799.97 248.454Z" fill="#891A1A"/>
<path d="M1840.52 229.865C1840.52 229.865 1857.59 183.636 1888.35 200.216C1923.96 219.402 1906.78 271.206 1861.89 276.438L1840.52 229.865Z" fill="#A26455"/>
<path d="M1840.52 229.865L1861.89 276.42C1867.86 275.732 1873.31 274.193 1878.24 272.039C1876.78 246.879 1875.85 221.683 1874.49 196.668C1852.5 197.428 1840.52 229.865 1840.52 229.865Z" fill="#935445"/>
<path d="M1889.32 237.467C1886.57 234.173 1882.24 232.037 1877.94 232.761C1871.61 233.829 1868.54 238.662 1867.82 244.218C1867.19 241.34 1866.89 238.3 1867.12 234.752C1867.63 226.172 1871.98 217.719 1878.37 212.307C1878.63 212.09 1878.3 211.655 1878.01 211.836C1870.13 217.049 1866.04 224.996 1864.65 234.408C1863.51 242.137 1865.11 253.486 1871.32 258.717C1872.15 259.405 1873.21 258.572 1872.77 257.577C1871.5 254.717 1870.36 252.147 1869.42 249.594C1869.19 245.033 1869.81 240.634 1873.45 237.087C1876.66 233.955 1881.59 234.535 1885.09 236.634C1889.97 239.567 1889.93 245.214 1887.59 249.848C1886.87 251.278 1888.98 252.527 1889.69 251.097C1891.83 246.68 1892.73 241.576 1889.32 237.467Z" fill="#8C4737"/>
<path d="M1831.36 106.092C1824.71 99.377 1814.13 99.0874 1804.22 101.296C1812 91.3946 1818.04 76.6969 1806.89 70.6151C1801.43 67.6466 1791.22 72.8415 1784.89 79.7559C1780.19 57.5102 1765.89 37.8167 1742.46 34.8301C1733.11 33.6354 1717.73 35.8256 1714.36 46.9032C1711.32 56.9853 1716.44 65.3478 1722.94 72.4432C1693.29 53.0393 1657.45 45.238 1623.37 57.7274C1610.83 62.325 1595.73 71.9726 1590.83 85.4395C1585.87 99.1236 1592.1 111.613 1603.46 119.179C1609.3 123.071 1616.13 125.333 1622.77 127.288C1626.15 128.284 1629.58 129.08 1633 130.021C1628.52 128.791 1622.5 129.985 1617.43 130.528C1598.39 132.61 1579.65 137.099 1563.02 147.127C1533.02 165.191 1513.58 203.22 1523 238.607C1532.35 273.722 1571.42 273.36 1599.41 266.12C1638.96 255.875 1671 231.403 1696.09 199.166C1690.98 212.633 1686.18 226.987 1689.73 241.196C1693.85 257.613 1710.12 258.192 1722.69 252.382C1747.51 240.924 1759.91 213.882 1766.72 186.64C1769.08 197.917 1774.53 208.614 1781.96 217.031C1790.31 226.516 1804.23 232.507 1816.29 227.095C1828.09 221.81 1833.72 208.687 1835.15 196.197C1837.65 174.513 1831.57 152.756 1823.56 132.755C1833.42 126.962 1841.11 115.921 1831.36 106.092Z" fill="#3A2119"/>
<path d="M1586.7 158.24C1572.63 167.616 1561.61 180.088 1563.41 198.388C1565.18 216.506 1581.56 227.131 1597.42 218.19C1612.47 209.719 1616.94 188.993 1626.8 175.907C1629.12 172.829 1632.19 169.137 1636.23 168.92C1640.69 168.684 1646.11 175.146 1649.05 177.898C1655.37 183.817 1663.13 187.889 1671.74 185.065C1679.35 182.586 1684.07 174.929 1687.8 168.196C1691 162.422 1694.44 153.245 1701.02 150.801C1708.31 148.104 1718.85 157.571 1724.77 160.955C1732.14 165.173 1742.07 168.811 1750.58 166.367C1757.42 164.395 1763.29 159.634 1765.38 152.376C1766.38 148.864 1766.54 145.353 1766.35 141.714C1766.23 139.488 1765.82 137.28 1765.36 135.126C1765.05 133.66 1764.66 134.293 1767.51 133.569C1777.28 131.089 1796.63 124.283 1783.92 111.722C1779.57 107.432 1772.92 114.274 1777.32 118.509C1779.71 120.808 1774.82 121.08 1772.63 121.605C1769.96 122.256 1767.04 122.166 1764.29 122.329C1759.94 122.6 1755.28 124.102 1752.95 128.248C1750.26 133.062 1749.89 138.221 1748.45 143.452C1746.47 150.548 1738.96 146.801 1734.2 144.411C1721.55 138.058 1710.86 129.641 1696.04 132.121C1683.78 134.166 1676.06 147.814 1670.21 157.625C1668.84 159.942 1667.47 162.603 1665.26 164.213C1667.13 164.304 1667.39 163.996 1666.04 163.308C1664.77 162.349 1663.59 161.299 1662.48 160.141C1656.32 154.312 1649.76 149.389 1641.76 146.674C1625.9 141.298 1612.59 155.688 1604.99 167.96C1601.43 173.698 1598.93 180.033 1596.08 186.151C1593.7 191.256 1590.27 200.234 1584.51 202.062C1579.72 203.582 1576.87 187.147 1576.84 184.921C1576.7 175.545 1582.77 167.2 1588.42 160.485C1589.39 159.326 1588.1 157.317 1586.7 158.24Z" fill="#5E2A2A"/>
<path d="M1832.61 339.373C1833.24 367.411 1877.82 384.154 1872.31 313.001C1866.8 241.847 1858.17 130.42 1858.17 130.42C1858.17 130.42 1879.93 82.0547 1876 76.6245C1872.08 71.1943 1862.45 92.7884 1862.45 92.7884C1862.45 92.7884 1864.88 55.1571 1859.33 55.3019C1853.77 55.4467 1851.34 88.1908 1851.34 88.1908C1851.34 88.1908 1852.96 49.4554 1847.42 50.9759C1841.85 52.5144 1834.95 105.187 1834.95 105.187C1834.95 105.187 1818.88 84.7336 1814.78 88.8243C1810.69 92.9151 1827.49 130.963 1841.04 130.691C1841.02 130.691 1830.83 260.165 1832.61 339.373Z" fill="#A26455"/>
<path d="M1841.73 106.273C1844.53 107.522 1847.54 107.812 1850.46 106.762C1853.4 105.694 1856.04 103.033 1855.2 99.6123C1854.97 98.6892 1853.84 98.6711 1853.37 99.3589C1852.05 101.296 1850.74 102.852 1848.51 103.667C1846.43 104.427 1844.19 104.97 1842.01 105.224C1841.54 105.296 1841.17 106.038 1841.73 106.273Z" fill="#8C4737"/>
<path d="M1842.79 129.406C1834.74 128.392 1817.77 106.871 1814.23 90.0552C1812.86 97.7299 1828.37 130.963 1841.04 130.691C1841.04 130.691 1834 220.09 1832.65 295.769C1837.58 254.011 1848.21 138.746 1842.79 129.406Z" fill="#B77965"/>
<path d="M1828.03 348.189L1824.51 277.451L1899.46 256.871C1899.46 256.871 1895.39 369.33 1862.63 377.186C1829.86 385.042 1828.03 348.189 1828.03 348.189Z" fill="#FDD866"/>
<path d="M1824.51 277.451L1828.03 348.189C1828.03 348.189 1828.61 359.936 1835.02 368.751C1838.1 337.093 1839.23 305.127 1839.56 273.324L1824.51 277.451Z" fill="#FCE277"/>
<path d="M1873.59 329.708C1872.06 329.201 1870.39 330.088 1869.9 331.645C1869.41 333.201 1870.27 334.939 1871.78 335.446C1873.3 335.953 1874.99 335.066 1875.48 333.509C1875.97 331.952 1875.11 330.215 1873.59 329.708Z" fill="#FCC74F"/>
<path d="M1864.26 347.808C1862.79 347.32 1861.17 348.17 1860.69 349.691C1860.22 351.211 1861.04 352.877 1862.52 353.365C1864 353.854 1865.62 353.003 1866.1 351.483C1866.57 349.962 1865.74 348.297 1864.26 347.808Z" fill="#FCC74F"/>
<path d="M1857.36 366.163C1857.93 364.371 1856.94 362.398 1855.2 361.818C1853.45 361.239 1851.54 362.253 1850.97 364.045C1850.41 365.837 1851.4 367.81 1853.14 368.389C1854.88 368.968 1856.8 367.955 1857.36 366.163Z" fill="#FCC74F"/>
<path d="M1870.02 270.573C1867.06 269.596 1865.58 274.302 1868.54 275.279C1871.5 276.275 1872.98 271.568 1870.02 270.573Z" fill="#FCC74F"/>
<path d="M1849.92 305.055C1846.2 303.824 1844.34 309.743 1848.05 310.992C1851.77 312.241 1853.63 306.304 1849.92 305.055Z" fill="#FCC74F"/>
<path d="M1888.52 290.665C1886.45 289.977 1884.16 291.172 1883.49 293.307C1882.82 295.443 1883.98 297.796 1886.06 298.484C1888.14 299.172 1890.43 297.977 1891.09 295.841C1891.76 293.706 1890.58 291.353 1888.52 290.665Z" fill="#FCC74F"/>
<path d="M1870.13 309.145C1868.1 308.476 1865.87 309.652 1865.21 311.734C1864.56 313.815 1865.71 316.114 1867.73 316.784C1869.76 317.454 1871.99 316.277 1872.64 314.196C1873.3 312.114 1872.15 309.815 1870.13 309.145Z" fill="#FCC74F"/>
<path d="M1847.38 335.301C1847.33 335.228 1847.28 335.138 1847.22 335.066C1846.27 333.654 1844.07 334.414 1843.63 335.844C1843.19 337.274 1844.53 339.211 1846.1 338.649C1846.18 338.613 1846.27 338.595 1846.36 338.559C1847.8 338.034 1848.26 336.586 1847.38 335.301Z" fill="#FCC74F"/>
<path d="M1649.31 571.08C1649.31 571.08 1647.55 727.397 1656.5 734.655C1665.44 741.914 1896.25 738.601 1901.13 730.257C1906 721.913 1891.48 531.765 1891.48 531.765L1649.31 571.08Z" fill="#A52538"/>
<path d="M1796.42 755.435C1796.42 755.435 1700.23 745.19 1633.93 688.155C1633.93 688.155 1635.23 640.043 1630.9 635.138C1626.57 630.233 1621.36 646.723 1621.36 661.873C1621.36 661.873 1586.26 600.385 1576.29 609.309C1566.33 618.214 1609.23 663.665 1609.23 663.665C1609.23 663.665 1574.27 664.841 1579.48 679.557C1584.67 694.255 1606.24 705.875 1626.61 698.744C1626.61 698.744 1677.27 789.301 1796.43 786.641V755.435H1796.42Z" fill="#FBBF9B"/>
<path d="M1588.3 660.823C1588.4 657.402 1589.27 646.795 1596.59 649.148C1603.93 651.501 1618.31 665.801 1612.03 670.778C1604.55 676.733 1588.3 660.823 1588.3 660.823Z" fill="#FBBF9B"/>
<path d="M1581.73 667.81C1581.73 667.81 1577.81 664.733 1580.27 660.986C1582.75 657.239 1586.82 654.488 1594.05 658.035C1601.29 661.565 1610.2 673.511 1603.91 678.634C1599.04 682.634 1589.07 672.226 1581.73 667.81Z" fill="#FBBF9B"/>
<path d="M1582.81 684.191C1573.97 676.19 1572.7 666.796 1579.23 666.181C1585.77 665.583 1599.99 675.991 1599.5 681.983C1598.9 689.494 1590.13 690.834 1582.81 684.191Z" fill="#FBBF9B"/>
<path d="M1611.27 661.818C1607.82 654.705 1601.11 649.275 1593.1 649.492C1592.96 649.492 1592.89 649.709 1593.03 649.764C1597.73 651.936 1602.15 653.709 1605.85 657.601C1607.8 659.646 1609.16 662.325 1610 665.022C1611.09 668.48 1609.49 670.579 1606.92 672.045C1606.75 671.195 1606.45 670.29 1605.97 669.312C1602.33 661.8 1595.71 657.836 1587.86 656.406C1587.4 656.316 1587.07 656.968 1587.52 657.221C1591.59 659.375 1595.81 661.294 1599.19 664.515C1601.27 666.488 1602.98 668.932 1604.07 671.611C1605.8 675.919 1602.35 678.163 1599.05 679.358C1597.65 671.937 1586.18 664.986 1578.7 666.036C1578.14 666.108 1578.03 667.068 1578.54 667.303C1583.3 669.529 1587.95 670.344 1592.1 673.928C1594.11 675.647 1596.01 677.91 1597.03 680.426C1596.92 680.788 1597.05 681.186 1597.35 681.44C1597.77 683.883 1595.83 686.526 1594.53 688.3C1594.49 688.336 1594.56 688.39 1594.6 688.372C1597.66 686.254 1599.02 683.847 1599.19 681.421C1603.42 680.372 1606.85 677.982 1607.1 674.127C1612.42 672.244 1613.84 667.104 1611.27 661.818Z" fill="#EB9772"/>
<path d="M1614.25 679.268C1612.5 678 1610.41 677.439 1608.24 677.385C1608.44 675.828 1609 674.29 1609.7 672.896C1610 672.317 1609.25 671.901 1608.88 672.389C1607.79 673.874 1607.38 675.593 1607.42 677.385C1603.88 677.53 1600.25 678.978 1597.7 681.005C1597.26 681.349 1597.82 682.073 1598.28 681.784C1600.76 680.191 1603.28 679.557 1606.18 679.322C1608.84 679.105 1611.17 680.136 1613.72 680.498C1614.48 680.643 1614.9 679.738 1614.25 679.268Z" fill="#EB9772"/>
<path d="M1648.33 697.549C1648.33 697.549 1638.66 704.5 1635.6 721.768C1635.6 721.768 1669.24 789.247 1796.42 799.202C1796.42 799.202 1799.44 840.363 1811.15 873.922H1920V837.901C1920 837.901 1879.84 790.297 1862.54 759.435C1845.23 728.574 1805.55 744.792 1790.8 750.548C1790.78 750.53 1700.74 735.361 1648.33 697.549Z" fill="#CD3896"/>
<path d="M1797.55 782.441C1708.63 779.364 1672.72 751.236 1636.56 723.469C1642.81 734.004 1681.26 790.188 1796.42 799.184C1796.42 799.184 1795.32 794.207 1797.55 782.441Z" fill="#B7348B"/>
<path d="M1840.15 745.299C1829.87 754.838 1899.68 873.904 1899.68 873.904H1920V809.122C1919.98 809.14 1866.1 721.225 1840.15 745.299Z" fill="#CD3896"/>
<path d="M1863.07 791.944C1857.77 783.31 1842.51 760.684 1841.27 744.357C1840.89 744.647 1840.52 744.955 1840.15 745.299C1829.87 754.838 1899.68 873.904 1899.68 873.904H1916.16C1912.36 868.256 1870.11 803.42 1863.07 791.944Z" fill="#E541AE"/>
<path d="M1799.95 737.968C1799.95 737.968 1811.15 759.942 1814.2 765.173C1817.24 770.404 1834.04 766.223 1834.55 757.842C1835.06 749.48 1826.91 723.306 1826.91 723.306L1799.95 737.968Z" fill="#FBBF9B"/>
<path d="M1830.76 736.863C1828.84 729.532 1826.91 723.324 1826.91 723.324L1799.94 737.967C1799.94 737.967 1804.73 747.38 1808.9 755.344C1812.88 752.683 1816.75 749.878 1820.43 746.746C1824.16 743.705 1827.49 740.302 1830.76 736.863Z" fill="#EB9772"/>
<path d="M1673.77 565.849C1672.89 567.134 1641.2 627.373 1657.48 679.539C1673.77 731.705 1798.93 782.966 1861.01 705.532C1923.08 628.097 1845.23 524 1845.23 524C1845.23 524 1710.4 512.488 1673.77 565.849Z" fill="#FBBF9B"/>
<path d="M1775.64 743.38C1746.3 742.783 1712.67 727.397 1691.85 705.966C1664.1 677.439 1660.51 638.541 1660.56 598.81C1653.82 621.11 1648.72 651.483 1657.47 679.521C1670.07 719.867 1747.85 759.689 1811.15 739.778C1799.11 741.986 1786.14 743.778 1775.64 743.38Z" fill="#FFD3B6"/>
<path opacity="0.5" d="M1884.93 631.482C1883.05 574.591 1845.22 524 1845.22 524C1845.22 524 1710.38 512.488 1673.75 565.849C1673.29 566.519 1664.45 583.244 1658.42 606.485C1665.62 610.25 1768.95 631.554 1884.93 631.482Z" fill="#EB9772"/>
<path d="M1772.51 628.043C1761.42 627.463 1760.36 647.066 1760.36 654.126C1760.36 655.139 1761.52 655.302 1761.63 654.234C1762.49 646.65 1763.43 629.78 1773.43 630.432C1779.22 630.812 1782.16 638.251 1783.85 642.777C1785.22 646.469 1786.12 650.723 1787.44 654.524C1787.81 655.592 1789.59 654.596 1789.39 653.583C1788.32 648.243 1786.33 641.437 1783.99 636.731C1781.65 632.043 1777.93 628.332 1772.51 628.043Z" fill="#3A2119"/>
<path d="M1692.18 628.187C1700.98 622.685 1700.33 643.573 1699.56 653.04C1699.47 654.144 1701.63 653.89 1701.72 652.424C1702.22 644.858 1705.21 625.726 1693.62 625.617C1685.56 625.545 1682.31 642.252 1681.3 648.098C1681.2 648.696 1682.01 648.931 1682.18 648.352C1684.26 641.926 1685.95 632.097 1692.18 628.187Z" fill="#3A2119"/>
<path d="M1726.77 667.918C1727.55 668.317 1728.24 667.375 1727.69 666.706C1723.41 661.619 1719.89 656.913 1719.54 650.089C1723.46 650.85 1727.35 652.171 1730.84 654.144C1731.42 654.47 1731.86 653.637 1731.35 653.257C1727.55 650.433 1723.39 648.551 1718.76 647.772C1718.09 647.664 1717.46 648.044 1717.46 648.804C1717.32 655.737 1720.4 664.588 1726.77 667.918Z" fill="#EB9772"/>
<path d="M1779.02 665.855C1778.41 665.927 1777.76 666 1777.09 666.054C1776.96 666.036 1776.84 666.054 1776.73 666.09C1775.47 666.235 1774.18 666.452 1773.11 666.959C1772.7 667.158 1772.69 667.882 1773.11 668.063C1773.85 668.389 1774.64 668.516 1775.45 668.57C1766.72 690.074 1761.03 718.655 1733.78 721.026C1705.86 723.451 1700.98 685.349 1697.62 664.751C1698.04 664.515 1698.43 664.244 1698.69 663.9C1698.96 663.556 1698.89 663.031 1698.43 662.904C1697.07 662.488 1695.31 662.995 1693.89 663.031C1692.27 663.086 1690.44 662.796 1688.99 663.683C1687.83 664.389 1687.87 666.651 1689.4 666.905C1691.11 667.176 1692.64 666.434 1694.26 665.909C1695.01 665.674 1696.02 665.439 1696.9 665.077C1699.01 688.861 1702.29 722.763 1731.63 725.098C1761.44 727.47 1769.76 690.78 1777.39 668.642C1777.7 668.642 1778 668.642 1778.32 668.66C1780.2 668.751 1782.07 669.385 1783.83 668.588C1784.52 668.28 1784.62 667.122 1784.08 666.633C1782.61 665.366 1780.85 665.638 1779.02 665.855Z" fill="#F98380"/>
<path opacity="0.7" d="M1824.9 655.429C1823.9 653.366 1822.26 652.189 1820.31 651.773C1819 651.157 1817.59 650.723 1816.13 650.578C1808.42 649.782 1800.75 653.945 1797.84 661.402C1797.72 661.728 1797.61 662.036 1797.53 662.343C1796.14 664.117 1795.38 666.072 1795.61 668.099C1797.53 685.078 1823.35 677.095 1826.78 664.896C1827.79 661.294 1826.87 657.981 1824.9 655.429Z" fill="#F98380"/>
<path opacity="0.7" d="M1678.2 650.741C1676.04 645.709 1669.61 638.595 1663.71 641.998C1659.17 644.623 1660 651.755 1660.86 656.044C1661.9 661.149 1665.04 667.52 1670.26 669.149C1675.99 670.905 1680.74 665.855 1680.47 660.171C1680.42 659.212 1680.26 658.271 1680.05 657.348C1679.84 655.103 1679.12 652.877 1678.2 650.741Z" fill="#F98380"/>
<path d="M1635.6 588.855C1635.6 588.855 1683.91 626.613 1864.58 620.042C1864.58 620.042 1841.1 737.733 1846.22 739.488C1851.34 741.244 1920 731.144 1920 731.144V479.509C1920 479.509 1871.02 424.03 1768.94 441.298C1670.33 457.987 1635.6 529.575 1635.6 588.855Z" fill="#CC2B3B"/>
<path d="M1878.24 531.168C1880.69 538.209 1882.4 545.522 1882.68 552.997C1882.78 555.93 1882.87 560.22 1880.92 562.627C1880.83 562.536 1880.72 562.464 1880.65 562.355C1871.11 522.606 1853.67 484.251 1822.65 457.607C1821.75 456.847 1820.48 458.096 1821.36 458.928C1845.32 482.278 1860.14 512.832 1869.49 545.051C1864.42 539.458 1858.01 536.689 1848.46 541.25C1842.29 544.2 1838.37 551.441 1833.97 556.418C1833.05 557.45 1831.5 558.029 1832.17 558.916C1830.22 556.292 1830.38 551.839 1830.15 548.726C1829.39 538.39 1825.64 527.837 1817.44 522.932C1817.1 497.646 1815.53 469.843 1801.38 448.303C1800.96 447.67 1800.08 448.213 1800.38 448.901C1810.45 471.762 1812.56 496.179 1812.67 520.905C1810.75 520.38 1808.67 520.072 1806.38 520.108C1792.56 520.289 1781.84 534.064 1773.46 543.694C1769.04 548.78 1764.66 553.902 1759.68 558.391C1758.27 559.658 1756.82 560.437 1756.21 560.654C1756.14 560.672 1756.1 560.69 1756.03 560.726C1755.84 560.69 1755.52 560.654 1755.01 560.654C1757.25 560.708 1752.67 559.459 1754.13 560.346C1753.64 560.057 1753.46 559.821 1752.99 559.061C1751.6 556.853 1752.07 557.758 1751.07 554.427C1749.43 548.979 1748.74 543.187 1747.95 537.557C1747.28 532.743 1746.68 527.801 1745.54 523.077C1751.93 497.374 1764.69 474.097 1781.33 453.86C1781.8 453.281 1781.05 452.484 1780.52 453.027C1763.14 470.259 1750.31 491.057 1742.55 514.371C1741.42 512.017 1740.01 509.773 1738.23 507.728C1729.34 497.41 1716.35 501.392 1705.91 508.198C1718.52 480.975 1740.98 462.802 1769.32 455.2C1769.99 455.019 1769.71 454.023 1769.04 454.15C1739.82 459.67 1717.39 476.178 1702.78 502.732C1700.51 506.859 1698.48 511.112 1696.63 515.475C1695.93 516.126 1695.26 516.778 1694.63 517.411C1689.68 522.407 1683.59 530.661 1677.25 534.336C1676.81 532.182 1676.81 529.883 1676.74 527.711C1676.57 522.661 1677.06 517.629 1677.18 512.597C1677.23 510.787 1674.45 509.809 1673.68 511.619C1668.57 523.638 1657.5 538.517 1667.46 550.916C1672.13 556.726 1678.66 555.966 1685.09 552.762C1682.36 564.853 1680.28 577.089 1678.24 589C1677.57 592.909 1683.33 594.629 1684.08 590.665C1686.85 576.42 1689.35 562.066 1692.73 547.965C1697.57 544.363 1701.83 540.254 1704.5 537.775C1708.85 533.738 1713.34 529.032 1716.39 527.168C1718.48 525.901 1720.49 524.978 1722.78 524.308C1722.72 524.344 1722.79 524.344 1722.95 524.326V524.344C1723.71 526.444 1724.13 528.688 1724.5 530.878C1725.01 533.919 1725.52 541.196 1726.03 546.101C1726.83 553.685 1728.08 562.102 1731.49 569.179C1729.45 578.827 1726.74 592.022 1731.39 599.118C1732.2 600.349 1733.9 600.131 1734.38 598.72C1735.68 594.81 1735.17 590.611 1735.43 586.538C1735.65 583.262 1736.09 580.004 1736.63 576.745C1737.23 577.361 1737.85 577.976 1738.5 578.537C1750.2 588.547 1764.08 585.85 1774.9 576.202C1785.4 566.881 1792.23 553.848 1802.31 544.074C1805.2 541.286 1807.47 539.549 1809.41 540.653C1812.56 542.427 1811.64 553.649 1812.42 558.59C1812.49 559.043 1812.58 559.495 1812.67 559.948C1812.45 576.347 1811.35 592.638 1806.7 608.476C1805.76 611.662 1810.29 612.748 1811.43 609.815C1816.31 597.398 1817.28 583.841 1817.51 570.573C1823.99 578.628 1835.09 580.51 1844.79 572.311C1849.85 568.039 1851.98 560.726 1857.19 556.708C1858.42 555.749 1857.86 555.694 1859.25 557.848C1860.95 560.509 1862.2 563.514 1863.59 566.338C1866.69 572.6 1871.83 577.379 1877.36 579.008C1877.61 580.329 1877.84 581.633 1878.07 582.954C1885.97 628.568 1885.88 675.249 1883.38 721.37C1883.15 725.551 1889.3 725.442 1889.63 721.37C1893.61 674.163 1892.85 625.943 1884.19 579.316C1887.82 578.501 1891.3 576.058 1894.21 571.496C1901.69 559.731 1897.04 536.942 1889.47 526.317C1885.69 520.923 1875.72 523.892 1878.24 531.168ZM1722.14 523.077C1722.43 523.312 1722.53 523.367 1722.71 523.747C1722.62 523.602 1722.51 523.403 1722.14 523.077Z" fill="#ED3550"/>
<path d="M1917.41 559.224C1912.8 537.576 1899.67 515.348 1887.03 497.718C1874.05 479.635 1857.98 464.793 1838.77 454.077C1838 453.643 1837.36 454.801 1838.09 455.272C1856.68 467.454 1872.27 483.599 1884.84 502.171C1890.93 511.167 1896.29 520.706 1901.13 530.462C1906 540.273 1909.33 550.861 1914.51 560.491C1915.41 562.156 1917.78 560.98 1917.41 559.224Z" fill="#ED3550"/>
<path d="M1726.51 459.906C1726.9 459.688 1726.56 459.145 1726.18 459.308C1703.78 469.228 1685.51 485.12 1670.51 504.741C1663.31 514.153 1657.17 524.778 1652.89 535.91C1648.33 547.766 1646.87 560.581 1641.94 572.184C1641.48 573.252 1642.24 574.845 1643.58 574.374C1650.53 571.912 1649.65 561.686 1651.74 555.64C1653.84 549.594 1654.79 543.169 1657.04 537.105C1660 529.213 1664.15 521.774 1668.54 514.642C1682.53 491.799 1703.34 472.377 1726.51 459.906Z" fill="#ED3550"/>
<path d="M1849.62 662.76C1849.62 662.76 1870.97 631.572 1897.03 640.948C1923.08 650.324 1911.97 711.378 1867.13 715.758C1822.3 720.157 1840.48 675.032 1849.62 662.76Z" fill="#FBBF9B"/>
<path d="M1901 663.285C1892.17 659.194 1881.04 665.728 1873.65 670.471C1863.19 677.186 1853.91 688.173 1851.8 700.916C1851.52 702.581 1854 703.323 1854.3 701.622C1855.27 696.174 1857.52 691.015 1860.69 686.363C1866.52 682.363 1873.12 677.421 1879.16 683.956C1884.39 689.603 1877.29 696.083 1873.42 699.359C1872.31 700.3 1873.49 702.219 1874.79 701.803C1881.74 699.54 1885.81 689.368 1881.76 683.051C1876.46 674.76 1868.38 679.141 1862.42 683.992C1871.68 672.009 1886.92 663.846 1900.9 663.773C1901.11 663.773 1901.23 663.393 1901 663.285Z" fill="#EB9772"/>
<path d="M1853 669.258C1857.8 665.801 1862.4 661.963 1867.63 659.212C1870.88 657.492 1873.96 655.863 1877.45 654.669C1880.18 653.746 1881.92 653.546 1884.17 651.7C1885.62 650.524 1885.28 647.465 1883.56 646.723C1877.52 644.098 1870.65 648.171 1865.21 651.067C1858.23 654.777 1854.95 660.877 1851.68 667.9C1851.29 668.715 1852.13 669.873 1853 669.258Z" fill="#FFD3B6"/>
</svg>
