<svg width="579" height="426" viewBox="0 0 579 426" fill="none" xmlns="http://www.w3.org/2000/svg">
<path d="M87.1593 30.6378C-18.2881 92.5051 -34.564 360.884 74.3464 400.24C183.257 439.595 514.99 445.103 557.334 324.593C599.679 204.083 580.459 70.0334 487.556 30.6378C394.671 -8.75783 159.228 -11.6419 87.1593 30.6378Z" fill="#D0EFEC"/>
<path d="M26.9049 219.73C26.2316 259.867 30.3102 302.747 52.4732 336.835C69.1724 362.532 94.7983 378.694 122.444 388.829C154.515 400.605 189.203 405.412 222.774 410.159C266.6 416.348 311.503 413.243 355.021 406.113C397.596 399.123 440.21 387.407 479.226 368.099C494.021 360.789 508.296 351.917 520.59 340.621C532.479 329.705 538.847 314.744 543.253 299.182C554.392 259.867 553.949 215.724 549.852 175.307C547.658 153.717 541.887 134.51 529.959 116.484C516.992 96.8966 498.908 81.3948 480.092 68.1961C398.328 10.8552 288.859 1.66221 194.263 21.1898C156.882 28.9007 117.885 41.1179 87.3722 65.7927C57.5137 89.9468 38.7752 123.714 30.3679 161.848C26.1546 180.895 24.8464 200.363 26.9049 219.73C26.9819 220.511 27.9823 220.511 28.0593 219.73C33.0229 173.044 39.0446 127.84 69.6149 91.0283C94.9523 60.5053 130.582 44.8832 167.04 34.2082C264.214 5.78803 379.685 12.3173 467.375 67.3549C489.192 81.0543 509.604 98.1384 524.591 119.749C538.058 139.176 542.464 160.807 544.426 184.16C547.87 225.418 547.658 271.343 532.96 310.398C519.724 345.508 479.476 362.492 447.963 374.629C404.484 391.372 358.08 400.685 311.965 404.731C274.296 408.036 237.569 405.873 200.265 399.984C172.138 395.538 143.799 390.491 117.115 379.896C91.5662 369.762 69.3071 352.878 54.5317 328.704C34.8698 296.518 29.3483 257.143 28.0593 219.75C28.04 218.949 26.9242 218.949 26.9049 219.73Z" fill="#F2FDFD"/>
<path d="M90.2115 205.576C87.5555 205.576 84.9795 205.224 82.4835 204.52C80.0195 203.784 78.0355 202.84 76.5315 201.688L79.1715 195.832C80.6115 196.888 82.3235 197.736 84.3075 198.376C86.2915 199.016 88.2755 199.336 90.2595 199.336C92.4675 199.336 94.0995 199.016 95.1555 198.376C96.2115 197.704 96.7395 196.824 96.7395 195.736C96.7395 194.936 96.4195 194.28 95.7795 193.768C95.1715 193.224 94.3715 192.792 93.3795 192.472C92.4195 192.152 91.1075 191.8 89.4435 191.416C86.8835 190.808 84.7875 190.2 83.1555 189.592C81.5235 188.984 80.1155 188.008 78.9315 186.664C77.7795 185.32 77.2035 183.528 77.2035 181.288C77.2035 179.336 77.7315 177.576 78.7875 176.008C79.8435 174.408 81.4275 173.144 83.5395 172.216C85.6835 171.288 88.2915 170.824 91.3635 170.824C93.5075 170.824 95.6035 171.08 97.6515 171.592C99.6995 172.104 101.492 172.84 103.028 173.8L100.628 179.704C97.5235 177.944 94.4195 177.064 91.3155 177.064C89.1395 177.064 87.5235 177.416 86.4675 178.12C85.4435 178.824 84.9315 179.752 84.9315 180.904C84.9315 182.056 85.5235 182.92 86.7075 183.496C87.9235 184.04 89.7635 184.584 92.2275 185.128C94.7875 185.736 96.8835 186.344 98.5155 186.952C100.148 187.56 101.54 188.52 102.692 189.832C103.876 191.144 104.468 192.92 104.468 195.16C104.468 197.08 103.924 198.84 102.836 200.44C101.78 202.008 100.18 203.256 98.0355 204.184C95.8915 205.112 93.2835 205.576 90.2115 205.576ZM134.549 192.184C134.549 192.28 134.501 192.952 134.405 194.2H114.869C115.221 195.8 116.053 197.064 117.365 197.992C118.677 198.92 120.309 199.384 122.261 199.384C123.605 199.384 124.789 199.192 125.813 198.808C126.869 198.392 127.845 197.752 128.741 196.888L132.725 201.208C130.293 203.992 126.741 205.384 122.069 205.384C119.157 205.384 116.581 204.824 114.341 203.704C112.101 202.552 110.373 200.968 109.157 198.952C107.941 196.936 107.333 194.648 107.333 192.088C107.333 189.56 107.925 187.288 109.109 185.272C110.325 183.224 111.973 181.64 114.053 180.52C116.165 179.368 118.517 178.792 121.109 178.792C123.637 178.792 125.925 179.336 127.973 180.424C130.021 181.512 131.621 183.08 132.773 185.128C133.957 187.144 134.549 189.496 134.549 192.184ZM121.157 184.456C119.461 184.456 118.037 184.936 116.885 185.896C115.733 186.856 115.029 188.168 114.773 189.832H127.493C127.237 188.2 126.533 186.904 125.381 185.944C124.229 184.952 122.821 184.456 121.157 184.456ZM137.614 214.696C134.99 214.696 132.99 214.216 131.614 213.256L133.63 207.832C134.494 208.44 135.55 208.744 136.798 208.744C137.758 208.744 138.51 208.424 139.054 207.784C139.598 207.176 139.87 206.248 139.87 205V179.176H147.358V204.952C147.358 207.96 146.494 210.328 144.766 212.056C143.07 213.816 140.686 214.696 137.614 214.696ZM143.614 175.576C142.238 175.576 141.118 175.176 140.254 174.376C139.39 173.576 138.958 172.584 138.958 171.4C138.958 170.216 139.39 169.224 140.254 168.424C141.118 167.624 142.238 167.224 143.614 167.224C144.99 167.224 146.11 167.608 146.974 168.376C147.838 169.144 148.27 170.104 148.27 171.256C148.27 172.504 147.838 173.544 146.974 174.376C146.11 175.176 144.99 175.576 143.614 175.576ZM164.669 178.792C168.669 178.792 171.741 179.752 173.885 181.672C176.029 183.56 177.101 186.424 177.101 190.264V205H170.093V201.784C168.685 204.184 166.061 205.384 162.221 205.384C160.237 205.384 158.509 205.048 157.037 204.376C155.597 203.704 154.493 202.776 153.725 201.592C152.957 200.408 152.573 199.064 152.573 197.56C152.573 195.16 153.469 193.272 155.261 191.896C157.085 190.52 159.885 189.832 163.661 189.832H169.613C169.613 188.2 169.117 186.952 168.125 186.088C167.133 185.192 165.645 184.744 163.661 184.744C162.285 184.744 160.925 184.968 159.581 185.416C158.269 185.832 157.149 186.408 156.221 187.144L153.533 181.912C154.941 180.92 156.621 180.152 158.573 179.608C160.557 179.064 162.589 178.792 164.669 178.792ZM164.093 200.344C165.373 200.344 166.509 200.056 167.501 199.48C168.493 198.872 169.197 197.992 169.613 196.84V194.2H164.477C161.405 194.2 159.869 195.208 159.869 197.224C159.869 198.184 160.237 198.952 160.973 199.528C161.741 200.072 162.781 200.344 164.093 200.344ZM212.736 178.792C215.136 178.792 217.312 179.352 219.264 180.472C221.248 181.56 222.8 183.112 223.92 185.128C225.04 187.112 225.6 189.432 225.6 192.088C225.6 194.744 225.04 197.08 223.92 199.096C222.8 201.08 221.248 202.632 219.264 203.752C217.312 204.84 215.136 205.384 212.736 205.384C209.184 205.384 206.48 204.264 204.624 202.024V205H197.472V169.384H204.96V181.912C206.848 179.832 209.44 178.792 212.736 178.792ZM211.44 199.24C213.36 199.24 214.928 198.6 216.144 197.32C217.392 196.008 218.016 194.264 218.016 192.088C218.016 189.912 217.392 188.184 216.144 186.904C214.928 185.592 213.36 184.936 211.44 184.936C209.52 184.936 207.936 185.592 206.688 186.904C205.472 188.184 204.864 189.912 204.864 192.088C204.864 194.264 205.472 196.008 206.688 197.32C207.936 198.6 209.52 199.24 211.44 199.24ZM255.908 192.184C255.908 192.28 255.86 192.952 255.764 194.2H236.228C236.58 195.8 237.412 197.064 238.724 197.992C240.036 198.92 241.668 199.384 243.62 199.384C244.964 199.384 246.148 199.192 247.172 198.808C248.228 198.392 249.204 197.752 250.1 196.888L254.084 201.208C251.652 203.992 248.1 205.384 243.428 205.384C240.516 205.384 237.94 204.824 235.7 203.704C233.46 202.552 231.732 200.968 230.516 198.952C229.3 196.936 228.692 194.648 228.692 192.088C228.692 189.56 229.284 187.288 230.468 185.272C231.684 183.224 233.332 181.64 235.412 180.52C237.524 179.368 239.876 178.792 242.468 178.792C244.996 178.792 247.284 179.336 249.332 180.424C251.38 181.512 252.98 183.08 254.132 185.128C255.316 187.144 255.908 189.496 255.908 192.184ZM242.516 184.456C240.82 184.456 239.396 184.936 238.244 185.896C237.092 186.856 236.388 188.168 236.132 189.832H248.852C248.596 188.2 247.892 186.904 246.74 185.944C245.588 184.952 244.18 184.456 242.516 184.456ZM293.966 178.792C297.198 178.792 299.758 179.752 301.646 181.672C303.566 183.56 304.526 186.408 304.526 190.216V205H297.038V191.368C297.038 189.32 296.606 187.8 295.742 186.808C294.91 185.784 293.71 185.272 292.142 185.272C290.382 185.272 288.99 185.848 287.966 187C286.942 188.12 286.43 189.8 286.43 192.04V205H278.942V191.368C278.942 187.304 277.31 185.272 274.046 185.272C272.318 185.272 270.942 185.848 269.918 187C268.894 188.12 268.382 189.8 268.382 192.04V205H260.894V179.176H268.046V182.152C269.006 181.064 270.174 180.232 271.549 179.656C272.958 179.08 274.494 178.792 276.158 178.792C277.982 178.792 279.63 179.16 281.102 179.896C282.574 180.6 283.758 181.64 284.654 183.016C285.71 181.672 287.038 180.632 288.638 179.896C290.27 179.16 292.046 178.792 293.966 178.792ZM310.277 188.488H323.861V194.488H310.277V188.488ZM354.635 179.176L343.739 205H336.011L325.163 179.176H332.891L340.043 196.744L347.435 179.176H354.635ZM357.69 179.176H365.178V205H357.69V179.176ZM361.434 175.576C360.058 175.576 358.938 175.176 358.074 174.376C357.21 173.576 356.778 172.584 356.778 171.4C356.778 170.216 357.21 169.224 358.074 168.424C358.938 167.624 360.058 167.224 361.434 167.224C362.81 167.224 363.93 167.608 364.794 168.376C365.658 169.144 366.09 170.104 366.09 171.256C366.09 172.504 365.658 173.544 364.794 174.376C363.93 175.176 362.81 175.576 361.434 175.576ZM387.824 178.792C391.024 178.792 393.6 179.752 395.552 181.672C397.536 183.592 398.528 186.44 398.528 190.216V205H391.04V191.368C391.04 189.32 390.592 187.8 389.696 186.808C388.8 185.784 387.504 185.272 385.808 185.272C383.92 185.272 382.416 185.864 381.296 187.048C380.176 188.2 379.616 189.928 379.616 192.232V205H372.128V179.176H379.28V182.2C380.272 181.112 381.504 180.28 382.976 179.704C384.448 179.096 386.064 178.792 387.824 178.792ZM431.901 169.384V205H424.749V202.024C422.893 204.264 420.205 205.384 416.685 205.384C414.253 205.384 412.045 204.84 410.061 203.752C408.109 202.664 406.573 201.112 405.453 199.096C404.333 197.08 403.773 194.744 403.773 192.088C403.773 189.432 404.333 187.096 405.453 185.08C406.573 183.064 408.109 181.512 410.061 180.424C412.045 179.336 414.253 178.792 416.685 178.792C419.981 178.792 422.557 179.832 424.413 181.912V169.384H431.901ZM417.981 199.24C419.869 199.24 421.437 198.6 422.685 197.32C423.933 196.008 424.557 194.264 424.557 192.088C424.557 189.912 423.933 188.184 422.685 186.904C421.437 185.592 419.869 184.936 417.981 184.936C416.061 184.936 414.477 185.592 413.229 186.904C411.981 188.184 411.357 189.912 411.357 192.088C411.357 194.264 411.981 196.008 413.229 197.32C414.477 198.6 416.061 199.24 417.981 199.24ZM451.119 205.384C448.399 205.384 445.951 204.824 443.775 203.704C441.631 202.552 439.951 200.968 438.735 198.952C437.519 196.936 436.911 194.648 436.911 192.088C436.911 189.528 437.519 187.24 438.735 185.224C439.951 183.208 441.631 181.64 443.775 180.52C445.951 179.368 448.399 178.792 451.119 178.792C453.839 178.792 456.271 179.368 458.415 180.52C460.559 181.64 462.239 183.208 463.455 185.224C464.671 187.24 465.279 189.528 465.279 192.088C465.279 194.648 464.671 196.936 463.455 198.952C462.239 200.968 460.559 202.552 458.415 203.704C456.271 204.824 453.839 205.384 451.119 205.384ZM451.119 199.24C453.039 199.24 454.607 198.6 455.823 197.32C457.071 196.008 457.695 194.264 457.695 192.088C457.695 189.912 457.071 188.184 455.823 186.904C454.607 185.592 453.039 184.936 451.119 184.936C449.199 184.936 447.615 185.592 446.367 186.904C445.119 188.184 444.495 189.912 444.495 192.088C444.495 194.264 445.119 196.008 446.367 197.32C447.615 198.6 449.199 199.24 451.119 199.24ZM476.332 214.312C474.412 211.4 472.924 208.024 471.868 204.184C470.844 200.344 470.332 196.232 470.332 191.848C470.332 187.464 470.844 183.352 471.868 179.512C472.924 175.64 474.412 172.264 476.332 169.384H483.484C481.468 172.936 479.996 176.552 479.068 180.232C478.14 183.88 477.676 187.752 477.676 191.848C477.676 195.944 478.14 199.832 479.068 203.512C479.996 207.16 481.468 210.76 483.484 214.312H476.332ZM497.856 178.792C501.856 178.792 504.928 179.752 507.072 181.672C509.216 183.56 510.288 186.424 510.288 190.264V205H503.28V201.784C501.872 204.184 499.248 205.384 495.408 205.384C493.424 205.384 491.696 205.048 490.224 204.376C488.784 203.704 487.68 202.776 486.912 201.592C486.144 200.408 485.76 199.064 485.76 197.56C485.76 195.16 486.656 193.272 488.448 191.896C490.272 190.52 493.072 189.832 496.848 189.832H502.8C502.8 188.2 502.304 186.952 501.312 186.088C500.32 185.192 498.832 184.744 496.848 184.744C495.472 184.744 494.112 184.968 492.768 185.416C491.456 185.832 490.336 186.408 489.408 187.144L486.72 181.912C488.128 180.92 489.808 180.152 491.76 179.608C493.744 179.064 495.776 178.792 497.856 178.792ZM497.28 200.344C498.56 200.344 499.696 200.056 500.688 199.48C501.68 198.872 502.384 197.992 502.8 196.84V194.2H497.664C494.592 194.2 493.056 195.208 493.056 197.224C493.056 198.184 493.424 198.952 494.16 199.528C494.928 200.072 495.968 200.344 497.28 200.344ZM514.089 214.312C516.105 210.76 517.577 207.16 518.505 203.512C519.465 199.832 519.945 195.944 519.945 191.848C519.945 187.752 519.465 183.88 518.505 180.232C517.577 176.552 516.105 172.936 514.089 169.384H521.241C523.193 172.232 524.681 175.592 525.705 179.464C526.761 183.304 527.289 187.432 527.289 191.848C527.289 196.264 526.777 200.392 525.753 204.232C524.729 208.04 523.225 211.4 521.241 214.312H514.089ZM144.747 237.792C148.747 237.792 151.819 238.752 153.963 240.672C156.107 242.56 157.179 245.424 157.179 249.264V264H150.171V260.784C148.763 263.184 146.139 264.384 142.299 264.384C140.315 264.384 138.587 264.048 137.115 263.376C135.675 262.704 134.571 261.776 133.803 260.592C133.035 259.408 132.651 258.064 132.651 256.56C132.651 254.16 133.547 252.272 135.339 250.896C137.163 249.52 139.963 248.832 143.739 248.832H149.691C149.691 247.2 149.195 245.952 148.203 245.088C147.211 244.192 145.723 243.744 143.739 243.744C142.363 243.744 141.003 243.968 139.659 244.416C138.347 244.832 137.227 245.408 136.299 246.144L133.611 240.912C135.019 239.92 136.699 239.152 138.651 238.608C140.635 238.064 142.667 237.792 144.747 237.792ZM144.171 259.344C145.451 259.344 146.587 259.056 147.579 258.48C148.571 257.872 149.275 256.992 149.691 255.84V253.2H144.555C141.483 253.2 139.947 254.208 139.947 256.224C139.947 257.184 140.315 257.952 141.051 258.528C141.819 259.072 142.859 259.344 144.171 259.344ZM135.339 227.952H143.403L149.883 234.864H144.027L135.339 227.952ZM208.654 264L208.606 243.84L198.718 260.448H195.214L185.374 244.272V264H178.078V230.4H184.51L197.086 251.28L209.47 230.4H215.854L215.95 264H208.654ZM249.41 238.176V264H242.306V260.928C241.314 262.048 240.13 262.912 238.754 263.52C237.378 264.096 235.89 264.384 234.29 264.384C230.898 264.384 228.21 263.408 226.226 261.456C224.242 259.504 223.25 256.608 223.25 252.768V238.176H230.738V251.664C230.738 255.824 232.482 257.904 235.97 257.904C237.762 257.904 239.202 257.328 240.29 256.176C241.378 254.992 241.922 253.248 241.922 250.944V238.176H249.41ZM268.827 264.384C266.075 264.384 263.595 263.824 261.387 262.704C259.211 261.552 257.499 259.968 256.251 257.952C255.035 255.936 254.427 253.648 254.427 251.088C254.427 248.528 255.035 246.24 256.251 244.224C257.499 242.208 259.211 240.64 261.387 239.52C263.595 238.368 266.075 237.792 268.827 237.792C271.547 237.792 273.915 238.368 275.931 239.52C277.979 240.64 279.467 242.256 280.395 244.368L274.587 247.488C273.243 245.12 271.307 243.936 268.779 243.936C266.827 243.936 265.211 244.576 263.931 245.856C262.651 247.136 262.011 248.88 262.011 251.088C262.011 253.296 262.651 255.04 263.931 256.32C265.211 257.6 266.827 258.24 268.779 258.24C271.339 258.24 273.275 257.056 274.587 254.688L280.395 257.856C279.467 259.904 277.979 261.504 275.931 262.656C273.915 263.808 271.547 264.384 268.827 264.384ZM295.122 237.792C299.122 237.792 302.194 238.752 304.338 240.672C306.482 242.56 307.554 245.424 307.554 249.264V264H300.546V260.784C299.138 263.184 296.514 264.384 292.674 264.384C290.69 264.384 288.962 264.048 287.49 263.376C286.05 262.704 284.946 261.776 284.178 260.592C283.41 259.408 283.026 258.064 283.026 256.56C283.026 254.16 283.922 252.272 285.714 250.896C287.538 249.52 290.338 248.832 294.114 248.832H300.066C300.066 247.2 299.57 245.952 298.578 245.088C297.586 244.192 296.098 243.744 294.114 243.744C292.738 243.744 291.378 243.968 290.034 244.416C288.722 244.832 287.602 245.408 286.674 246.144L283.986 240.912C285.394 239.92 287.074 239.152 289.026 238.608C291.01 238.064 293.042 237.792 295.122 237.792ZM294.546 259.344C295.826 259.344 296.962 259.056 297.954 258.48C298.946 257.872 299.65 256.992 300.066 255.84V253.2H294.93C291.858 253.2 290.322 254.208 290.322 256.224C290.322 257.184 290.69 257.952 291.426 258.528C292.194 259.072 293.234 259.344 294.546 259.344ZM359.029 264L358.981 243.84L349.093 260.448H345.589L335.749 244.272V264H328.453V230.4H334.885L347.461 251.28L359.845 230.4H366.229L366.325 264H359.029ZM399.785 238.176V264H392.681V260.928C391.689 262.048 390.505 262.912 389.129 263.52C387.753 264.096 386.265 264.384 384.665 264.384C381.273 264.384 378.585 263.408 376.601 261.456C374.617 259.504 373.625 256.608 373.625 252.768V238.176H381.113V251.664C381.113 255.824 382.857 257.904 386.345 257.904C388.137 257.904 389.577 257.328 390.665 256.176C391.753 254.992 392.297 253.248 392.297 250.944V238.176H399.785ZM419.202 264.384C416.45 264.384 413.97 263.824 411.762 262.704C409.586 261.552 407.874 259.968 406.626 257.952C405.41 255.936 404.802 253.648 404.802 251.088C404.802 248.528 405.41 246.24 406.626 244.224C407.874 242.208 409.586 240.64 411.762 239.52C413.97 238.368 416.45 237.792 419.202 237.792C421.922 237.792 424.29 238.368 426.306 239.52C428.354 240.64 429.842 242.256 430.77 244.368L424.962 247.488C423.618 245.12 421.682 243.936 419.154 243.936C417.202 243.936 415.586 244.576 414.306 245.856C413.026 247.136 412.386 248.88 412.386 251.088C412.386 253.296 413.026 255.04 414.306 256.32C415.586 257.6 417.202 258.24 419.154 258.24C421.714 258.24 423.65 257.056 424.962 254.688L430.77 257.856C429.842 259.904 428.354 261.504 426.306 262.656C424.29 263.808 421.922 264.384 419.202 264.384ZM445.497 237.792C449.497 237.792 452.569 238.752 454.713 240.672C456.857 242.56 457.929 245.424 457.929 249.264V264H450.921V260.784C449.513 263.184 446.889 264.384 443.049 264.384C441.065 264.384 439.337 264.048 437.865 263.376C436.425 262.704 435.321 261.776 434.553 260.592C433.785 259.408 433.401 258.064 433.401 256.56C433.401 254.16 434.297 252.272 436.089 250.896C437.913 249.52 440.713 248.832 444.489 248.832H450.441C450.441 247.2 449.945 245.952 448.953 245.088C447.961 244.192 446.473 243.744 444.489 243.744C443.113 243.744 441.753 243.968 440.409 244.416C439.097 244.832 437.977 245.408 437.049 246.144L434.361 240.912C435.769 239.92 437.449 239.152 439.401 238.608C441.385 238.064 443.417 237.792 445.497 237.792ZM444.921 259.344C446.201 259.344 447.337 259.056 448.329 258.48C449.321 257.872 450.025 256.992 450.441 255.84V253.2H445.305C442.233 253.2 440.697 254.208 440.697 256.224C440.697 257.184 441.065 257.952 441.801 258.528C442.569 259.072 443.609 259.344 444.921 259.344ZM463.746 230.4H472.674L471.186 252.336H465.234L463.746 230.4ZM468.21 264.384C466.898 264.384 465.794 263.968 464.898 263.136C464.034 262.272 463.602 261.232 463.602 260.016C463.602 258.8 464.034 257.792 464.898 256.992C465.762 256.16 466.866 255.744 468.21 255.744C469.554 255.744 470.658 256.16 471.522 256.992C472.386 257.792 472.818 258.8 472.818 260.016C472.818 261.232 472.37 262.272 471.474 263.136C470.61 263.968 469.522 264.384 468.21 264.384Z" fill="#1D2A6E"/>
</svg>
